<svg width="60" height="60" fill="none" xmlns="http://www.w3.org/2000/svg"><mask id="a" style="mask-type:alpha" maskUnits="userSpaceOnUse" x="0" y="0" width="60" height="60"><path fill="#fff" d="M0 0h60v60H0z"/></mask><g mask="url(#a)"><path fill-rule="evenodd" clip-rule="evenodd" d="M29.712.213c-.125.117-.591.692-1.037 1.277l-.81 1.064-1.298.439c-2.159.73-2.265 1.01-1.042 2.748.865 1.23.944 1.505.963 3.374.009.869.04 1.003.297 1.26.158.158.372.287.476.287.103 0 .817-.19 1.587-.421l1.399-.422 1.399.421c.77.232 1.483.422 1.587.422.103 0 .317-.13.476-.287.25-.252.288-.396.293-1.143.014-1.936.107-2.27.967-3.483 1.23-1.734 1.123-2.018-1.049-2.764l-1.305-.448-.804-1.055C30.816.174 30.633 0 30.247 0c-.17 0-.41.096-.535.213Zm1.28 3.07c.566.704.678.783 1.538 1.085.51.18.942.341.96.36.02.019-.221.4-.535.846-.557.794-.57.834-.622 1.835-.029.563-.08 1.052-.114 1.086-.035.035-.4-.043-.812-.172-.948-.297-1.298-.297-2.272.004-.432.134-.812.216-.845.183-.033-.033-.088-.524-.122-1.092-.06-1.004-.078-1.054-.63-1.844-.313-.447-.554-.827-.535-.846.019-.019.452-.18.962-.36.87-.305.968-.375 1.564-1.12.35-.438.685-.779.744-.76.06.02.383.378.719.796Zm-14.429.428c-.082.033-.549.587-1.036 1.23-.963 1.271-1.007 1.302-2.826 1.905-.988.328-1.318.595-1.318 1.069 0 .135.395.822.878 1.526l.878 1.28.002 1.406c.005 2.291.186 2.427 2.366 1.775l1.446-.433 1.423.428c2.181.655 2.38.506 2.381-1.794v-1.382l.879-1.28c.483-.704.878-1.39.878-1.526 0-.506-.32-.729-1.786-1.24l-1.444-.504-.816-1.105c-1.032-1.397-1.31-1.594-1.905-1.355Zm26.51.086c-.127.09-.6.664-1.05 1.275l-.821 1.11-1.44.499c-1.462.506-1.782.727-1.782 1.233 0 .135.395.82.879 1.522l.878 1.276V12.1c0 1.547.145 2.022.656 2.15.192.048.81-.078 1.728-.352l1.429-.428 1.44.433c2.175.654 2.358.516 2.363-1.775l.002-1.406.821-1.172c1.357-1.937 1.312-2.095-.826-2.872l-1.46-.53-.847-1.11c-.465-.61-.937-1.176-1.048-1.257a.787.787 0 0 0-.921.017Zm-25.31 3.25c.473.61.585.684 1.46.976.521.173.948.335.948.36 0 .025-.264.45-.586.943-.585.896-.586.9-.586 1.878 0 .54-.048.981-.107.981s-.44-.104-.85-.232c-.936-.294-1.299-.294-2.148-.002-1.024.352-.996.374-.996-.752v-.986l-.599-.895c-.33-.492-.577-.917-.55-.944.026-.026.466-.195.977-.374.895-.313.954-.358 1.576-1.175.583-.767.661-.83.797-.645.083.113.382.503.664.866Zm26.526-.113c.581.745.655.797 1.544 1.093.514.171.934.339.934.373 0 .034-.263.456-.585.937l-.586.876v.986c0 .543-.048.986-.107.986s-.44-.104-.85-.232c-.93-.292-1.186-.293-2.108-.003-.409.128-.809.233-.89.234-.105 0-.146-.272-.146-.98 0-.98 0-.98-.592-1.887-.326-.5-.573-.926-.55-.95.022-.022.46-.188.97-.367.894-.313.955-.358 1.574-1.171.355-.465.675-.808.713-.762.038.047.344.436.68.867ZM28.097 12.84c-8.1 1.464-12.478 10.188-8.816 17.564 1.709 3.44 4.664 5.716 8.548 6.58 1.122.25 3.714.25 4.836 0 4.424-.984 7.82-3.985 9.242-8.169 1.432-4.208.371-9.026-2.703-12.285-2.852-3.022-7.06-4.42-11.107-3.69Zm4.786 1.893c2.393.669 4.36 1.974 5.755 3.816.702.929 1.497 2.576 1.82 3.77.364 1.345.364 3.932 0 5.273-.323 1.186-1.142 2.842-1.852 3.743-.477.606-.56.668-.636.47-.493-1.304-.67-1.684-1.045-2.258a8.691 8.691 0 0 0-1.806-1.984l-.459-.37.385-.722c1.173-2.2.871-4.628-.802-6.459-2.057-2.25-5.678-2.298-7.872-.104-1.69 1.69-2.11 4.232-1.05 6.337.147.29.338.609.426.709.139.158.079.25-.458.703-1.276 1.077-2.097 2.233-2.548 3.589-.246.738-.256.75-.481.546-.362-.327-1.243-1.708-1.618-2.534-.646-1.426-.867-2.54-.863-4.36.004-1.99.227-2.952 1.085-4.688 1.455-2.942 4.058-4.925 7.391-5.63 1.078-.229 3.556-.147 4.628.153Zm-29.89 3.59c-1.097.512-1.837 1.503-1.989 2.668-.066.506.658 12.518.896 14.861.53 5.228 2.575 9.777 6.228 13.855l.813.908h-.578c-.671 0-1.219.311-1.635.928-.261.389-.266.455-.266 3.759 0 3.307.004 3.37.267 3.76.147.218.476.514.732.66.45.255.565.263 3.664.265l3.198.002.287-.288c.367-.366.367-.816 0-1.182l-.287-.288H8.219v-5.859h15.705l-.032 2.9-.03 2.9-3.064.06c-2.801.053-3.085.077-3.31.281-.36.326-.33.924.062 1.233.295.232.45.243 3.432.243 3.005 0 3.142-.01 3.645-.264a1.82 1.82 0 0 0 .784-.732c.254-.453.263-.575.264-3.673.003-3.58-.027-3.744-.794-4.33-.342-.26-.56-.32-1.273-.357-.51-.026-.86-.095-.86-.17 0-.727-.515-6.595-.648-7.381-.317-1.878-.813-2.939-1.921-4.113-.646-.683-6.585-5.725-7.386-6.27a62.958 62.958 0 0 1-.446-.304c-.017-.013-.16-2.048-.32-4.522-.157-2.475-.319-4.681-.358-4.904-.176-.995-.842-1.847-1.833-2.342-.572-.286-.866-.358-1.457-.358h-.74l-.233-.454c-.31-.61-1.186-1.361-1.85-1.588-.812-.276-1.846-.237-2.563.096Zm51.904-.09c-.627.222-1.375.869-1.756 1.518l-.303.518h-.732c-1.565 0-3.017 1.195-3.281 2.7-.039.223-.2 2.429-.358 4.903-.158 2.474-.302 4.506-.32 4.516-.574.312-7.055 5.758-7.832 6.581-1.11 1.175-1.606 2.24-1.92 4.113-.13.781-.65 6.686-.65 7.39 0 .065-.386.137-.86.161-.713.036-.93.097-1.272.358-.767.585-.797.748-.795 4.329.002 3.099.01 3.22.264 3.664.163.287.456.563.778.732.503.266.597.273 3.646.273 2.988 0 3.143-.011 3.438-.243.392-.309.422-.907.062-1.233-.225-.204-.51-.228-3.31-.282l-3.063-.058-.032-2.9-.031-2.9h15.704v5.859h-6.103l-.288.287c-.368.368-.366.816.005 1.187l.293.293 3.32-.034 3.32-.035.43-.328c.773-.59.78-.634.78-4.335 0-3.268-.004-3.335-.266-3.724-.416-.617-.963-.928-1.635-.928h-.578l.814-.908c3.62-4.04 5.67-8.57 6.22-13.738.065-.612.313-4.2.55-7.975.408-6.496.421-6.898.244-7.508-.428-1.472-1.728-2.452-3.229-2.434-.424.005-.989.086-1.254.18ZM5.27 20.038c.761.464.766.499 1.238 8.433.236 3.963.482 7.443.549 7.733.2.88.828 1.659 3.648 4.52 2.44 2.475 2.742 2.744 3.089 2.744.445 0 .87-.44.87-.9 0-.21-.705-1.007-2.761-3.118-1.52-1.56-2.864-3.032-2.988-3.27a2.445 2.445 0 0 1-.226-.986c0-.487.052-.6.458-.985.27-.258.629-.468.877-.514.542-.102 1.31.106 1.829.494 1.095.821 6.682 5.56 7.128 6.046.673.736 1.173 1.837 1.372 3.025.126.747.639 6.553.639 7.226 0 .092-1.381.13-4.787.13h-4.787l-1.047-1.084C6.395 45.42 4.2 40.926 3.662 35.794c-.211-2.01-.971-14.484-.9-14.769.087-.348.624-.985.937-1.111.441-.179 1.167-.121 1.57.124Zm51.92.167c.658.63.653.405.19 7.762-.233 3.725-.48 7.273-.548 7.885-.573 5.145-2.75 9.587-6.707 13.68l-1.048 1.083H44.29c-2.633 0-4.787-.036-4.787-.08 0-.662.517-6.561.638-7.275.2-1.188.701-2.292 1.368-3.016.517-.56 6.478-5.599 7.22-6.103.968-.656 1.93-.63 2.637.075.383.38.44.508.44.983 0 .31-.098.733-.226.98-.124.24-1.469 1.711-2.988 3.27-2.057 2.112-2.762 2.909-2.762 3.12 0 .46.426.9.87.9.348 0 .65-.27 3.09-2.745 2.82-2.862 3.448-3.64 3.648-4.52.066-.29.307-3.665.535-7.499.445-7.463.458-7.61.719-8.115.437-.845 1.799-1.055 2.497-.385Zm-25.396.153c.698.31 1.562 1.17 1.89 1.88.355.774.357 2.314.003 3.083a3.904 3.904 0 0 1-1.78 1.828c-.568.28-.807.326-1.666.326-.894 0-1.08-.04-1.7-.363-2.956-1.543-2.592-5.879.582-6.918.67-.22 1.988-.139 2.671.164ZM9.16 22.227c.357.246.557.482.7.825.061.145.217 1.99.347 4.101.13 2.11.257 4.03.283 4.266l.047.428-.543.08c-.3.046-.725.157-.946.25-.263.109-.427.125-.475.047-.04-.065-.193-2.083-.34-4.484-.145-2.4-.295-4.668-.332-5.039l-.066-.674h.517c.297 0 .642.086.808.2Zm43.43.533c-.038.403-.186 2.683-.328 5.067-.143 2.385-.295 4.376-.337 4.426-.043.05-.258.015-.48-.077a4.762 4.762 0 0 0-.931-.246l-.53-.08.26-4.12c.142-2.267.29-4.279.329-4.472.137-.7.812-1.23 1.568-1.23h.517l-.068.732Zm-24.77 5.964c1.486.76 3.378.754 4.881-.014.509-.26.53-.262.907-.06.608.328 1.731 1.578 2.133 2.373.346.687.716 1.848.716 2.25 0 .23-1.33 1.047-2.362 1.452-1.252.492-2.358.685-3.907.683-1.767-.003-3.217-.351-4.711-1.131-1.532-.8-1.479-.738-1.33-1.547.266-1.44 1.28-3.023 2.515-3.925.547-.4.537-.399 1.158-.081Z" fill="#fff"/></g></svg>