<svg width="560" height="52" fill="none" xmlns="http://www.w3.org/2000/svg"><path d="M40.571 1.234h2v-2h-2v2Zm0 49.766v2h2v-2h-2Zm-10.254 0-1.715 1.028.582.972h1.133v-2ZM10.322 17.64l1.716-1.028-3.716-6.198v7.227h2Zm0 33.36v2h2v-2h-2ZM.068 51h-2v2h2v-2Zm0-49.766v-2h-2v2h2Zm10.254 0L12.037.206l-.582-.972h-1.133v2Zm20.03 33.394-1.716 1.029 3.716 6.194v-7.223h-2Zm0-33.394v-2h-2v2h2Zm8.22 0V51h4V1.234h-4Zm2 47.766H30.316v4h10.254v-4Zm-8.54.972-19.994-33.36-3.431 2.057 19.995 33.36 3.43-2.057ZM8.323 17.64V51h4V17.64h-4Zm2 31.359H.068v4h10.254v-4Zm-8.254 2V1.234h-4V51h4Zm-2-47.766h10.254v-4H.068v4Zm8.54-.97 20.028 33.393 3.43-2.058L12.038.206l-3.43 2.057Zm23.744 32.364V1.234h-4v33.394h4Zm-2-31.394h10.22v-4h-10.22v4Zm54.14 41.956 1.493 1.33.007-.008-1.5-1.322Zm-6.699 4.819-.79-1.838-.006.003.796 1.835Zm-17.158 0-.796 1.835.006.002.79-1.837Zm-6.7-4.82-1.492 1.332.008.008 1.484-1.34Zm-4.409-7.69-1.893.645.005.013 1.888-.658Zm0-22.73 1.892.65.001-.004-1.893-.645Zm4.341-7.69-1.492-1.332-.008.01 1.5 1.322Zm6.7-4.853-.79-1.838-.006.003.795 1.835Zm17.158 0-.796 1.835.006.002.79-1.837Zm6.699 4.853-1.5 1.323.008.009 1.492-1.332Zm4.375 7.69-1.893.646.003.009.003.008 1.887-.662Zm-9.502 3.145-1.945.464 1.945-.464Zm-2.12-5.059-1.65 1.129 1.65-1.129ZM73.76 9.78l-.93 1.77.011.007.012.006.907-1.783Zm-9.229 0 .92 1.777.01-.006-.93-1.77Zm-3.384 3.076-1.65-1.128-.007.01-.007.01 1.665 1.108Zm-2.084 21.431-1.947.46.001.004 1.946-.464Zm2.119 5.093-1.66 1.116.004.006.004.006 1.652-1.128Zm3.418 3.11-.93 1.77.93-1.77Zm12.612-3.11 1.664 1.11.004-.007.004-.006-1.672-1.097Zm2.085-5.093 1.945.464.001-.005-1.946-.459Zm9.074-9.33v2.358h4v-2.359h-4Zm0 2.358c0 3.603-.489 6.775-1.431 9.54l3.786 1.29c1.108-3.25 1.645-6.87 1.645-10.83h-4Zm-1.431 9.54c-.95 2.79-2.274 5.114-3.948 7.013l3 2.645c2.064-2.34 3.634-5.141 4.734-8.368l-3.786-1.29ZM83 43.859a16.82 16.82 0 0 1-5.997 4.312l1.58 3.675a20.817 20.817 0 0 0 7.402-5.326L83 43.86Zm-6.003 4.315c-2.295.995-4.88 1.51-7.783 1.51v4c3.385 0 6.52-.602 9.375-1.84l-1.592-3.67Zm-7.783 1.51c-2.879 0-5.466-.514-7.79-1.513l-1.579 3.675c2.872 1.235 6.004 1.838 9.369 1.838v-4Zm-7.784-1.51a17.229 17.229 0 0 1-6.01-4.324l-2.97 2.68a21.226 21.226 0 0 0 7.39 5.314l1.59-3.67Zm-6.002-4.316c-1.696-1.9-3.04-4.228-4.013-7.017l-3.777 1.316c1.124 3.226 2.719 6.026 4.805 8.364l2.985-2.663Zm-4.009-7.004c-.942-2.765-1.43-5.937-1.43-9.54h-4c0 3.96.536 7.58 1.644 10.83l3.786-1.29Zm-1.43-9.54v-2.359h-4v2.359h4Zm0-2.359c0-3.628.488-6.798 1.429-9.536l-3.783-1.3c-1.11 3.233-1.647 6.854-1.647 10.836h4Zm1.43-9.54c.951-2.79 2.275-5.115 3.948-7.013l-3-2.646c-2.063 2.34-3.634 5.142-4.734 8.368l3.786 1.29Zm3.94-7.004a17.035 17.035 0 0 1 6.003-4.35L59.771.39a21.035 21.035 0 0 0-7.396 5.356l2.984 2.664Zm5.997-4.348c2.323-.999 4.91-1.512 7.79-1.512v-4c-3.365 0-6.497.603-9.37 1.837l1.58 3.675Zm7.79-1.512c2.903 0 5.488.514 7.783 1.51L78.52.39c-2.854-1.238-5.99-1.84-9.374-1.84v4Zm7.789 1.512c2.326 1 4.316 2.442 5.989 4.339l3-2.646a20.633 20.633 0 0 0-7.41-5.368l-1.58 3.675Zm5.997 4.348c1.693 1.897 3.025 4.22 3.974 7.004l3.786-1.29c-1.102-3.232-2.686-6.036-4.776-8.378l-2.984 2.664Zm3.98 7.021c.96 2.734 1.46 5.899 1.46 9.523h4c0-3.986-.55-7.612-1.686-10.848l-3.774 1.325Zm-4.897 11.882v-2.427h-4v2.427h4Zm0-2.427c0-2.758-.25-5.244-.773-7.437l-3.89.928c.433 1.818.663 3.98.663 6.509h4Zm-.773-7.437c-.522-2.187-1.312-4.111-2.413-5.723l-3.303 2.257c.768 1.123 1.39 2.57 1.826 4.394l3.89-.928Zm-2.413-5.723c-1.105-1.617-2.49-2.88-4.163-3.73l-1.813 3.565c1.017.517 1.91 1.304 2.673 2.422l3.303-2.257ZM74.69 8.01c-1.67-.877-3.534-1.29-5.544-1.29v4c1.453 0 2.664.295 3.683.83l1.861-3.54Zm-5.544-1.29c-2.01 0-3.876.413-5.545 1.29l1.86 3.54c1.02-.535 2.231-.83 3.684-.83v-4Zm-5.534 1.284c-1.647.852-3.016 2.115-4.116 3.724l3.303 2.257c.769-1.125 1.655-1.913 2.651-2.428l-1.838-3.553Zm-4.129 3.743c-1.07 1.607-1.846 3.525-2.366 5.704l3.89.928c.438-1.831 1.053-3.286 1.805-4.413l-3.329-2.219Zm-2.366 5.704c-.523 2.193-.772 4.679-.772 7.437h4c0-2.529.23-4.691.663-6.509l-3.89-.928Zm-.772 7.437v2.427h4v-2.427h-4Zm0 2.427c0 2.737.25 5.22.771 7.431l3.893-.918c-.435-1.845-.664-4.01-.664-6.513h-4Zm.772 7.436c.522 2.186 1.31 4.116 2.405 5.745l3.32-2.232c-.775-1.151-1.399-2.616-1.834-4.441l-3.89.928Zm2.413 5.757c1.102 1.612 2.48 2.881 4.14 3.753l1.86-3.541c-1.03-.541-1.93-1.346-2.697-2.468l-3.303 2.256Zm4.14 3.753c1.669.877 3.534 1.289 5.544 1.289v-4c-1.454 0-2.665-.295-3.684-.83l-1.86 3.54Zm5.544 1.289c2.01 0 3.875-.412 5.544-1.29l-1.86-3.54c-1.02.535-2.23.83-3.684.83v4Zm5.544-1.29c1.665-.874 3.037-2.149 4.118-3.77l-3.328-2.22c-.742 1.113-1.626 1.912-2.65 2.45l1.86 3.54Zm4.126-3.783c1.065-1.624 1.838-3.547 2.358-5.726l-3.89-.928c-.438 1.832-1.054 3.304-1.813 4.46l3.345 2.194Zm2.36-5.73c.521-2.212.77-4.695.77-7.433h-4c0 2.504-.228 4.67-.664 6.514l3.893.918Zm40.641-1.485h-2v2h2v-2Zm0-7.998v-2h-2v2h2Zm17.466-.957.92 1.775.013-.006.013-.007-.946-1.762Zm-13.912-15.04v-2h-2v2h2Zm0 41.734v2h2v-2h-2Zm-10.253 0h-2v2h2v-2Zm0-49.766v-2h-2v2h2Zm29.394 2.12-.906 1.782.009.005.008.004.889-1.791Zm0 27.993-.829-1.82-.005.002.834 1.818Zm-10.015-.086h-12.68v4h12.68v-4Zm-10.68 2v-7.998h-4v7.998h4Zm-2-5.998h12.68v-4h-12.68v4Zm12.68 0c2.156 0 4.098-.348 5.706-1.182l-1.841-3.55c-.853.441-2.101.732-3.865.732v4Zm5.732-1.195c1.568-.843 2.781-2.049 3.55-3.616l-3.592-1.761c-.371.756-.958 1.373-1.851 1.853l1.893 3.524Zm3.55-3.616c.72-1.47 1.058-3.087 1.058-4.811h-4c0 1.192-.231 2.195-.65 3.05l3.592 1.76Zm1.058-4.811c0-1.745-.337-3.404-1.028-4.951l-3.652 1.63c.448 1.005.68 2.103.68 3.32h4Zm-1.028-4.951c-.738-1.653-1.91-2.977-3.461-3.954l-2.131 3.385c.91.573 1.538 1.3 1.94 2.2l3.652-1.631Zm-3.461-3.954c-1.642-1.034-3.641-1.47-5.851-1.47v4c1.71 0 2.901.34 3.72.855l2.131-3.385Zm-5.851-1.47h-9.126v4h9.126v-4Zm-11.126 2V51h4V9.267h-4Zm2 39.734h-10.253v4h10.253v-4Zm-8.253 2V1.234h-4V51h4Zm-2-47.766h19.379v-4h-19.379v4Zm19.379 0c3.659 0 6.671.664 9.109 1.902l1.812-3.565C142.364-.016 138.7-.766 134.565-.766v4Zm9.126 1.911c2.493 1.236 4.334 2.911 5.601 5.016l3.427-2.062c-1.695-2.817-4.137-4.993-7.25-6.537l-1.778 3.583Zm5.601 5.016c1.275 2.118 1.936 4.569 1.936 7.411h4c0-3.492-.821-6.67-2.509-9.473l-3.427 2.062Zm1.936 7.411c0 2.896-.664 5.293-1.914 7.273l3.383 2.135c1.713-2.715 2.531-5.878 2.531-9.408h-4Zm-1.914 7.273c-1.25 1.982-3.074 3.549-5.563 4.681l1.658 3.64c3.117-1.418 5.577-3.474 7.288-6.186l-3.383-2.135Zm-5.568 4.684c-2.457 1.128-5.496 1.732-9.181 1.732v4c4.109 0 7.746-.672 10.849-2.097l-1.668-3.635Zm31.117-19.784 1.901.624.063-.192.023-.2-1.987-.232ZM161.328 51v2h1.449l.451-1.377-1.9-.623Zm-10.903 0-1.875-.697L147.548 53h2.877v-2Zm18.491-49.766v-2h-1.39l-.485 1.304 1.875.696Zm6.938 0 1.987.232.26-2.232h-2.247v2ZM186.108 51l-1.899.625.452 1.375h1.447v-2ZM172.539 9.745l-1.984.255.025.189.059.181 1.9-.625Zm-1.094-8.51v-2h-2.273l.29 2.254 1.983-.255Zm7.007 0 1.874-.7-.486-1.3h-1.388v2ZM197.046 51v2h2.882l-1.009-2.7-1.873.7Zm-11.553-18.525h2v-2h-2v2Zm0 8.032v2h2v-2h-2Zm-26.284 0h-2v2h2v-2Zm0-8.032v-2h-2v2h2Zm13.754-23.353-13.535 41.255 3.8 1.246 13.536-41.254-3.801-1.247ZM161.328 49h-10.903v4h10.903v-4Zm-9.028 2.697L170.791 1.93l-3.75-1.393-18.491 49.765 3.75 1.394Zm16.616-48.463h6.938v-4h-6.938v4Zm4.952-2.231-.991 8.51 3.973.463.991-8.51-3.973-.463Zm14.14 49.372L174.439 9.12l-3.8 1.25 13.57 41.255 3.799-1.25ZM174.523 9.49 173.429.98l-3.967.51 1.093 8.51 3.968-.51Zm-3.078-6.256h7.007v-4h-7.007v4Zm5.134-1.3L195.172 51.7l3.747-1.4L180.326.534l-3.747 1.4ZM197.046 49h-10.938v4h10.938v-4Zm-13.553-16.525v8.032h4v-8.032h-4Zm2 6.032h-26.284v4h26.284v-4Zm-24.284 2v-8.032h-4v8.032h4Zm-2-6.032h26.284v-4h-26.284v4Zm53.354-33.24h2v-2h-2v2Zm0 49.765v2h2v-2h-2Zm-10.219 0h-2v2h2v-2Zm0-49.766v-2h-2v2h2Zm8.219 0V51h4V1.234h-4Zm2 47.766h-10.219v4h10.219v-4Zm-8.219 2V1.234h-4V51h4Zm-2-47.766h10.219v-4h-10.219v4Zm60.327-2h2v-2h-2v2Zm0 49.766v2h2v-2h-2Zm-10.254 0-1.715 1.028.582.972h1.133v-2Zm-19.995-33.36 1.715-1.028-3.715-6.198v7.227h2Zm0 33.36v2h2v-2h-2Zm-10.254 0h-2v2h2v-2Zm0-49.766v-2h-2v2h2Zm10.254 0 1.715-1.028-.583-.972h-1.132v2Zm20.029 33.394-1.715 1.029 3.715 6.194v-7.223h-2Zm0-33.394v-2h-2v2h2Zm8.22 0V51h4V1.234h-4Zm2 47.766h-10.254v4h10.254v-4Zm-8.539.972-19.995-33.36-3.431 2.057 19.996 33.36 3.43-2.057Zm-23.71-32.331V51h4V17.64h-4Zm2 31.359h-10.254v4h10.254v-4Zm-8.254 2V1.234h-4V51h4Zm-2-47.766h10.254v-4h-10.254v4Zm8.539-.97 20.029 33.393 3.43-2.058L234.137.206l-3.43 2.057Zm23.744 32.364V1.234h-4v33.394h4Zm-2-31.394h10.22v-4h-10.22v4Zm77.075-2h2v-2h-2v2Zm0 49.766v2h2v-2h-2Zm-10.254 0-1.715 1.028.582.972h1.133v-2Zm-19.995-33.36 1.716-1.028-3.716-6.198v7.227h2Zm0 33.36v2h2v-2h-2Zm-10.254 0h-2v2h2v-2Zm0-49.766v-2h-2v2h2Zm10.254 0 1.715-1.028-.582-.972h-1.133v2Zm20.03 33.394-1.716 1.029 3.716 6.194v-7.223h-2Zm0-33.394v-2h-2v2h2Zm8.219 0V51h4V1.234h-4Zm2 47.766h-10.254v4h10.254v-4Zm-8.538.972-19.995-33.36-3.431 2.057 19.995 33.36 3.431-2.057ZM297.277 17.64V51h4V17.64h-4Zm2 31.359h-10.254v4h10.254v-4Zm-8.254 2V1.234h-4V51h4Zm-2-47.766h10.254v-4h-10.254v4Zm8.539-.97 20.029 33.393 3.431-2.058L300.992.206l-3.43 2.057Zm23.745 32.364V1.234h-4v33.394h4Zm-2-31.394h10.219v-4h-10.219v4Zm54.14 41.956 1.493 1.33.007-.008-1.5-1.322Zm-6.699 4.819-.79-1.838-.006.003.796 1.835Zm-17.158 0-.796 1.835.006.002.79-1.837Zm-6.699-4.82-1.493 1.332.008.008 1.485-1.34Zm-4.41-7.69-1.893.645.005.013 1.888-.658Zm0-22.73 1.892.65.001-.004-1.893-.645Zm4.341-7.69-1.492-1.332-.008.01 1.5 1.322Zm6.699-4.853-.789-1.838-.006.003.795 1.835Zm17.159 0-.796 1.835.006.002.79-1.837Zm6.699 4.853-1.5 1.323.008.009 1.492-1.332Zm4.375 7.69-1.893.646.003.009.003.008 1.887-.662Zm-9.502 3.145-1.945.464 1.945-.464Zm-2.119-5.059-1.651 1.129 1.651-1.129Zm-3.418-3.076-.93 1.77.011.007.012.006.907-1.783Zm-9.229 0 .919 1.777.012-.006-.931-1.77Zm-3.383 3.076-1.652-1.128-.006.01-.007.01 1.665 1.108Zm-2.085 21.431-1.947.46.001.004 1.946-.464Zm2.119 5.093-1.66 1.116.004.006.004.006 1.652-1.128Zm3.418 3.11-.931 1.77.931-1.77Zm12.612-3.11 1.664 1.11.004-.007.004-.006-1.672-1.097Zm2.085-5.093 1.945.464.001-.005-1.946-.459Zm9.074-9.33v2.358h4v-2.359h-4Zm0 2.358c0 3.603-.488 6.775-1.431 9.54l3.786 1.29c1.108-3.25 1.645-6.87 1.645-10.83h-4Zm-1.431 9.54c-.951 2.79-2.274 5.114-3.948 7.013l3 2.645c2.064-2.34 3.634-5.141 4.734-8.368l-3.786-1.29Zm-3.941 7.005a16.814 16.814 0 0 1-5.996 4.312l1.58 3.675a20.815 20.815 0 0 0 7.402-5.326l-2.986-2.661Zm-6.002 4.315c-2.295.995-4.879 1.51-7.783 1.51v4c3.385 0 6.52-.602 9.375-1.84l-1.592-3.67Zm-7.783 1.51c-2.879 0-5.466-.514-7.789-1.513l-1.58 3.675c2.872 1.235 6.004 1.838 9.369 1.838v-4Zm-7.783-1.51a17.219 17.219 0 0 1-6.01-4.324l-2.97 2.68a21.22 21.22 0 0 0 7.388 5.314l1.592-3.67Zm-6.003-4.316c-1.696-1.9-3.041-4.228-4.013-7.017l-3.777 1.316c1.124 3.226 2.719 6.026 4.805 8.364l2.985-2.663Zm-4.009-7.004c-.942-2.765-1.431-5.937-1.431-9.54h-4c0 3.96.537 7.58 1.645 10.83l3.786-1.29Zm-1.431-9.54v-2.359h-4v2.359h4Zm0-2.359c0-3.628.489-6.798 1.43-9.536l-3.783-1.3c-1.11 3.233-1.647 6.854-1.647 10.836h4Zm1.431-9.54c.951-2.79 2.275-5.115 3.948-7.013l-3-2.646c-2.063 2.34-3.634 5.142-4.734 8.368l3.786 1.29Zm3.94-7.004a17.035 17.035 0 0 1 6.003-4.35L348.726.39a21.037 21.037 0 0 0-7.396 5.356l2.984 2.664Zm5.997-4.348c2.324-.999 4.911-1.512 7.79-1.512v-4c-3.365 0-6.497.603-9.369 1.837l1.579 3.675Zm7.79-1.512c2.903 0 5.488.514 7.783 1.51l1.591-3.67c-2.854-1.238-5.989-1.84-9.374-1.84v4Zm7.789 1.512c2.326 1 4.316 2.442 5.989 4.339l3-2.646a20.626 20.626 0 0 0-7.41-5.368l-1.579 3.675Zm5.997 4.348c1.693 1.897 3.025 4.22 3.974 7.004l3.786-1.29c-1.102-3.232-2.686-6.036-4.776-8.378l-2.984 2.664Zm3.98 7.021c.96 2.734 1.459 5.899 1.459 9.523h4c0-3.986-.549-7.612-1.685-10.848l-3.774 1.325Zm-4.897 11.882v-2.427h-4v2.427h4Zm0-2.427c0-2.758-.249-5.244-.773-7.437l-3.89.928c.433 1.818.663 3.98.663 6.509h4Zm-.773-7.437c-.521-2.187-1.312-4.111-2.413-5.723l-3.302 2.257c.767 1.123 1.389 2.57 1.825 4.394l3.89-.928Zm-2.413-5.723c-1.105-1.617-2.49-2.88-4.163-3.73l-1.813 3.565c1.017.517 1.91 1.304 2.674 2.422l3.302-2.257Zm-4.139-3.718c-1.669-.877-3.534-1.29-5.544-1.29v4c1.453 0 2.664.295 3.684.83l1.86-3.54Zm-5.544-1.29c-2.01 0-3.876.413-5.545 1.29l1.861 3.54c1.019-.535 2.23-.83 3.684-.83v-4Zm-5.534 1.284c-1.647.852-3.016 2.115-4.116 3.724l3.303 2.257c.769-1.125 1.656-1.913 2.651-2.428l-1.838-3.553Zm-4.129 3.743c-1.071 1.607-1.846 3.525-2.366 5.704l3.891.928c.437-1.831 1.052-3.286 1.804-4.413l-3.329-2.219Zm-2.366 5.704c-.523 2.193-.772 4.679-.772 7.437h4c0-2.529.229-4.691.663-6.509l-3.891-.928Zm-.772 7.437v2.427h4v-2.427h-4Zm0 2.427c0 2.737.249 5.22.771 7.431l3.893-.918c-.435-1.845-.664-4.01-.664-6.513h-4Zm.772 7.436c.522 2.186 1.31 4.116 2.405 5.745l3.32-2.232c-.775-1.151-1.399-2.616-1.834-4.441l-3.891.928Zm2.413 5.757c1.102 1.612 2.48 2.881 4.139 3.753l1.861-3.541c-1.03-.541-1.93-1.346-2.697-2.468l-3.303 2.256Zm4.139 3.753c1.67.877 3.535 1.289 5.545 1.289v-4c-1.454 0-2.665-.295-3.684-.83l-1.861 3.54Zm5.545 1.289c2.01 0 3.875-.412 5.544-1.29l-1.86-3.54c-1.02.535-2.231.83-3.684.83v4Zm5.544-1.29c1.665-.874 3.037-2.149 4.118-3.77l-3.328-2.22c-.742 1.113-1.626 1.912-2.65 2.45l1.86 3.54Zm4.126-3.783c1.065-1.624 1.839-3.547 2.358-5.726l-3.89-.928c-.438 1.832-1.054 3.304-1.812 4.46l3.344 2.194Zm2.359-5.73c.522-2.212.772-4.695.772-7.433h-4c0 2.504-.229 4.67-.665 6.514l3.893.918Zm73.386-9.757h2v-2h-2v2Zm0 19.722 1.54 1.277.46-.556v-.721h-2Zm-3.589 3.042 1.104 1.668.008-.006.008-.005-1.12-1.657Zm-6.255 2.769-.581-1.914.581 1.914Zm-18.047-.41-.751 1.853.007.003.007.002.737-1.859Zm-6.836-4.683-1.47 1.356.008.008 1.462-1.364Zm-4.375-7.52-1.891.65.001.004 1.89-.654Zm-.068-23.55-1.896-.636-.004.013 1.9.623Zm30.044-11.723-.906 1.783.012.006.894-1.79Zm6.357 5.81-1.724 1.013.005.01.006.009 1.713-1.032Zm2.735 8.477v2h2.226l-.238-2.213-1.988.213Zm-9.946 0-1.979.294.254 1.706h1.725v-2Zm-1.436-4.41 1.742-.981-1.742.982Zm-3.042-2.939-.956 1.757.007.004.006.003.943-1.764Zm-9.639 0 .919 1.777.012-.006-.931-1.77Zm-3.349 3.042-1.656-1.122 1.656 1.122Zm-2.051 21.978-1.94.485.001.005 1.939-.49Zm2.222 5.024-1.626 1.165.011.016.011.015 1.604-1.196Zm12.817 3.657-.485-1.94-.01.003.495 1.937Zm2.632-.99 1.011 1.725.009-.006.009-.005-1.029-1.715Zm1.572-1.163 1.414 1.414.586-.586v-.828h-2Zm0-8.818h2v-2h-2v2Zm-9.365 0h-2v2h2v-2Zm0-7.315v-2h-2v2h2Zm17.619 0v19.722h4V24.989h-4Zm.46 18.445c-.603.727-1.625 1.618-3.169 2.662l2.24 3.314c1.692-1.144 3.062-2.281 4.009-3.422l-3.08-2.554Zm-3.153 2.651c-1.409.933-3.301 1.785-5.732 2.523l1.162 3.827c2.674-.811 4.951-1.805 6.778-3.014l-2.208-3.336Zm-5.732 2.523c-2.31.701-5.19 1.076-8.681 1.076v4c3.754 0 7.049-.4 9.843-1.249l-1.162-3.827Zm-8.681 1.076c-2.994 0-5.667-.488-8.047-1.432l-1.475 3.718c2.907 1.153 6.089 1.714 9.522 1.714v-4Zm-8.034-1.426a16.978 16.978 0 0 1-6.124-4.194l-2.925 2.73c2.116 2.267 4.639 3.993 7.547 5.171l1.502-3.707Zm-6.116-4.185c-1.683-1.825-3.009-4.084-3.956-6.818l-3.78 1.308c1.105 3.19 2.695 5.945 4.795 8.222l2.941-2.712Zm-3.954-6.814c-.94-2.736-1.43-5.917-1.43-9.57h-4c0 4.004.536 7.637 1.647 10.87l3.783-1.3Zm-1.43-9.57v-3.11h-4v3.11h4Zm0-3.11c0-3.66.469-6.85 1.37-9.596l-3.8-1.247c-1.059 3.224-1.57 6.848-1.57 10.843h4Zm1.366-9.583c.928-2.762 2.224-5.032 3.863-6.852L407.2 5.468c-2.053 2.28-3.604 5.047-4.682 8.255l3.792 1.273Zm3.863-6.852a16.29 16.29 0 0 1 5.884-4.177L414.509.28a20.29 20.29 0 0 0-7.309 5.189l2.973 2.676Zm5.884-4.177c2.278-.956 4.847-1.45 7.737-1.45v-4c-3.354 0-6.458.576-9.285 1.762l1.548 3.688Zm7.737-1.45c4.13 0 7.346.676 9.758 1.902l1.812-3.566c-3.148-1.6-7.041-2.336-11.57-2.336v4Zm9.77 1.908c2.462 1.23 4.28 2.91 5.527 5.034l3.449-2.025c-1.67-2.844-4.09-5.038-7.188-6.587l-1.788 3.578Zm5.538 5.053c1.314 2.183 2.145 4.723 2.459 7.658l3.977-.426c-.369-3.446-1.361-6.557-3.009-9.295l-3.427 2.063Zm4.448 5.445h-9.946v4h9.946v-4Zm-7.968 1.706c-.28-1.885-.825-3.596-1.672-5.097l-3.484 1.964c.566 1.005.978 2.233 1.199 3.72l3.957-.587Zm-1.672-5.097c-.901-1.6-2.199-2.844-3.841-3.722l-1.886 3.528c1.001.535 1.731 1.25 2.243 2.158l3.484-1.964Zm-3.828-3.715c-1.687-.917-3.734-1.302-6.015-1.302v4c1.867 0 3.192.32 4.103.816l1.912-3.514Zm-6.015-1.302c-1.992 0-3.844.414-5.51 1.289l1.861 3.54c1.023-.537 2.223-.83 3.649-.83v-4Zm-5.499 1.283c-1.644.85-3.005 2.101-4.086 3.696l3.311 2.245c.742-1.095 1.614-1.872 2.613-2.388l-1.838-3.553Zm-4.086 3.696c-1.075 1.586-1.852 3.485-2.373 5.643l3.888.939c.436-1.807 1.049-3.235 1.796-4.338l-3.311-2.244Zm-2.373 5.643c-.525 2.173-.774 4.637-.774 7.374h4c0-2.505.229-4.643.662-6.435l-3.888-.939Zm-.774 7.374v3.178h4v-3.178h-4Zm0 3.178c0 2.722.262 5.191.812 7.39l3.88-.97c-.453-1.813-.692-3.946-.692-6.42h-4Zm.813 7.395c.55 2.174 1.382 4.09 2.535 5.7l3.251-2.33c-.806-1.126-1.455-2.56-1.908-4.35l-3.878.98Zm2.557 5.73c1.191 1.597 2.677 2.828 4.446 3.657l1.698-3.622c-1.148-.538-2.123-1.335-2.937-2.426l-3.207 2.39Zm4.446 3.657c1.772.83 3.77 1.215 5.942 1.215v-4c-1.702 0-3.1-.3-4.244-.837l-1.698 3.622Zm5.942 1.215c1.715 0 3.239-.144 4.528-.473l-.99-3.875c-.853.218-2.018.347-3.538.347v4Zm4.518-.47c1.2-.3 2.276-.689 3.158-1.206l-2.023-3.451c-.439.257-1.118.53-2.105.776l.97 3.88Zm3.176-1.217c.756-.454 1.432-.938 1.957-1.463l-2.828-2.828c-.204.204-.576.495-1.187.861l2.058 3.43Zm2.543-2.877v-8.818h-4v8.818h4Zm-2-10.818h-9.365v4h9.365v-4Zm-7.365 2v-7.315h-4v7.315h4Zm-2-5.315h19.619v-4h-19.619v4ZM472.09 9.745l1.9.624.063-.192.023-.2-1.986-.232ZM458.555 51v2h1.448l.452-1.377-1.9-.623Zm-10.904 0-1.874-.697L444.775 53h2.876v-2Zm18.492-49.766v-2h-1.391l-.484 1.304 1.875.696Zm6.938 0 1.987.232.26-2.232h-2.247v2ZM483.335 51l-1.9.625.452 1.375h1.448v-2ZM469.766 9.745l-1.984.255.024.189.06.181 1.9-.625Zm-1.094-8.51v-2h-2.274l.29 2.254 1.984-.255Zm7.007 0 1.873-.7-.486-1.3h-1.387v2ZM494.272 51v2h2.883l-1.009-2.7-1.874.7ZM482.72 32.475h2v-2h-2v2Zm0 8.032v2h2v-2h-2Zm-26.284 0h-2v2h2v-2Zm0-8.032v-2h-2v2h2ZM470.19 9.122l-13.536 41.255 3.801 1.246L473.99 10.37l-3.8-1.247ZM458.555 49h-10.904v4h10.904v-4Zm-9.029 2.697L468.017 1.93 464.268.538l-18.491 49.765 3.749 1.394Zm16.617-48.463h6.938v-4h-6.938v4Zm4.951-2.231-.991 8.51 3.973.463.992-8.51-3.974-.463Zm14.141 49.372L471.665 9.12l-3.799 1.25 13.569 41.255 3.8-1.25ZM471.749 9.49 470.656.98l-3.968.51 1.094 8.51 3.967-.51Zm-3.077-6.256h7.007v-4h-7.007v4Zm5.133-1.3L492.399 51.7l3.747-1.4L477.552.534l-3.747 1.4ZM494.272 49h-10.937v4h10.937v-4ZM480.72 32.475v8.032h4v-8.032h-4Zm2 6.032h-26.284v4h26.284v-4Zm-24.284 2v-8.032h-4v8.032h4Zm-2-6.032h26.284v-4h-26.284v4Zm53.354-33.24h2v-2h-2v2Zm0 49.765v2h2v-2h-2Zm-10.22 0h-2v2h2v-2Zm0-49.766v-2h-2v2h2Zm8.22 0V51h4V1.234h-4Zm2 47.766h-10.22v4h10.22v-4Zm-8.22 2V1.234h-4V51h4Zm-2-47.766h10.22v-4h-10.22v4Zm60.327-2h2v-2h-2v2Zm0 49.766v2h2v-2h-2Zm-10.253 0-1.716 1.028.583.972h1.133v-2Zm-19.996-33.36 1.716-1.028-3.716-6.198v7.227h2Zm0 33.36v2h2v-2h-2Zm-10.253 0h-2v2h2v-2Zm0-49.766v-2h-2v2h2Zm10.253 0 1.716-1.028-.583-.972h-1.133v2Zm20.03 33.394-1.715 1.029 3.715 6.194v-7.223h-2Zm0-33.394v-2h-2v2h2Zm8.219 0V51h4V1.234h-4Zm2 47.766h-10.253v4h10.253v-4Zm-8.538.972-19.995-33.36-3.431 2.057 19.995 33.36 3.431-2.057ZM527.648 17.64V51h4V17.64h-4Zm2 31.359h-10.253v4h10.253v-4Zm-8.253 2V1.234h-4V51h4Zm-2-47.766h10.253v-4h-10.253v4Zm8.538-.97 20.03 33.393 3.43-2.058L531.364.206l-3.431 2.057Zm23.745 32.364V1.234h-4v33.394h4Zm-2-31.394h10.219v-4h-10.219v4Z" fill="#E9E9E9"/></svg>