<svg width="60" height="60" fill="none" xmlns="http://www.w3.org/2000/svg"><mask id="a" style="mask-type:alpha" maskUnits="userSpaceOnUse" x="0" y="0" width="60" height="60"><path fill="#fff" d="M0 0h60v60H0z"/></mask><g mask="url(#a)"><path fill-rule="evenodd" clip-rule="evenodd" d="M12.419.27a1.79 1.79 0 0 0-.78.78c-.247.467-.27.66-.27 2.253 0 1.208.05 1.861.16 2.126.214.513.81.994 1.436 1.162.505.135.513.145.513.64v.503H9.574c-4.475 0-4.794.048-5.651.838-.81.747-.935 1.218-.922 3.498.021 3.87.872 7.504 2.537 10.84 2.546 5.099 6.764 8.644 12.547 10.546 1.218.4 1.827.674 2.461 1.106 1.06.72 2.358 1.41 3.432 1.822.765.293.86.367 1.188.94 1.113 1.937 1.536 4.158 1.195 6.27-.067.418-.317 1.341-.556 2.05l-.432 1.29-1.582.06c-1.47.056-1.626.085-2.204.403a4.22 4.22 0 0 0-1.684 1.728c-.225.428-.271.727-.31 1.998l-.044 1.494h-1.834c-1.611 0-1.88.028-2.209.229-.766.467-.797.599-.797 3.398 0 2.327.019 2.557.238 2.935.511.88-.567.82 14.82.82s14.31.06 14.82-.82c.22-.378.239-.608.239-2.93 0-2.45-.008-2.53-.273-2.902-.47-.658-.744-.73-2.756-.73h-1.81l-.046-1.494c-.038-1.27-.084-1.57-.31-1.998a4.219 4.219 0 0 0-1.684-1.728c-.577-.318-.733-.347-2.203-.403l-1.582-.06-.433-1.29c-.238-.709-.488-1.632-.556-2.05a9.412 9.412 0 0 1 1.141-6.171c.393-.687.452-.736 1.243-1.04 1.079-.412 2.637-1.243 3.539-1.885.537-.383 1.121-.642 2.344-1.037 3.834-1.24 7.188-3.376 9.55-6.08 3.551-4.065 5.511-9.48 5.544-15.31.012-2.281-.112-2.752-.922-3.5-.857-.79-1.177-.837-5.651-.837h-3.905v-.503c0-.495.008-.505.514-.64.626-.168 1.221-.65 1.436-1.162.11-.265.16-.918.16-2.126 0-1.593-.023-1.786-.27-2.253a1.79 1.79 0 0 0-.78-.78l-.51-.27H35.131C28.01 0 23.578.043 23.448.113c-.116.062-.275.267-.354.456-.118.285-.11.407.046.708.103.2.2.376.214.392.015.015 5.195.054 11.51.087l11.485.06V4.863H13.185V1.816l3.475-.058c3.204-.054 3.493-.076 3.72-.282.36-.326.33-.925-.062-1.233C20.02.009 19.873 0 16.469 0 13 0 12.92.005 12.42.27Zm31.88 14.1c0 8.476-.044 9.151-.714 11.214-2.099 6.457-8.41 10.664-15.053 10.035-3.459-.328-6.361-1.658-8.846-4.053-2.12-2.043-3.4-4.351-4.184-7.543-.16-.651-.193-1.965-.233-9.052l-.046-8.291H44.298v7.69Zm-30.82-3.714v1.164l-2.608.037c-2.512.036-2.621.047-2.99.31-.626.447-.773.859-.684 1.92.184 2.215.955 4.915 2 7.007 1.05 2.099 2.862 4.298 4.666 5.66.695.524.872.74 1.28 1.546.261.516.718 1.307 1.016 1.758.298.451.583.885.634.964.12.188-1.231-.421-2.233-1.006-4.922-2.877-8.15-7.509-9.338-13.404-.49-2.424-.683-5.48-.4-6.293.073-.21.297-.48.498-.603.34-.207.639-.223 4.262-.223h3.896v1.163Zm40.678-.98c.69.357.831 1.399.567 4.21-.666 7.087-3.96 12.608-9.548 16.006-.992.604-2.565 1.335-2.436 1.133.051-.08.337-.515.635-.967.299-.45.756-1.242 1.016-1.758.41-.81.585-1.02 1.294-1.556 1.752-1.323 3.648-3.613 4.602-5.56.447-.91.4-1.321-.18-1.6-.584-.28-.857-.077-1.563 1.158-.73 1.274-1.663 2.541-2.376 3.223-.351.336-.47.402-.422.234.216-.754.31-2.702.31-6.413v-4.192h2.285c1.881 0 2.285.029 2.285.164 0 .09-.105.78-.233 1.532-.247 1.441-.217 1.695.228 1.934.364.194.768.138 1.028-.144.275-.3.571-1.585.689-2.993.088-1.061-.059-1.473-.684-1.92-.369-.263-.478-.274-2.99-.31l-2.608-.037V9.492h3.873c3.287 0 3.927.028 4.228.184Zm-25.396 3.67c-.525.32-.821.745-1.452 2.081-.35.743-.643 1.213-.78 1.253-.12.036-.824.152-1.564.258-1.423.204-1.783.332-2.185.775-.41.453-.546.817-.546 1.459 0 .785.217 1.132 1.49 2.376.552.54 1.004 1.065 1.004 1.167 0 .1-.11.797-.244 1.546-.197 1.098-.22 1.453-.117 1.836.166.616.509 1.041 1.07 1.328.794.405 1.292.319 2.895-.5l1.435-.734 1.436.734c1.602.819 2.1.905 2.894.5.56-.286.904-.712 1.07-1.323.101-.379.075-.76-.138-1.979l-.264-1.509 1.117-1.141c.614-.628 1.185-1.27 1.268-1.428.193-.369.195-1.398.002-1.77-.444-.859-.88-1.09-2.522-1.335a48.859 48.859 0 0 1-1.563-.25c-.213-.046-.4-.326-.846-1.271-.62-1.315-1.008-1.856-1.524-2.123-.476-.245-1.494-.22-1.936.05Zm-15.282 4.437c.001 3.741.088 5.638.294 6.4.103.38-1.325-1.167-1.985-2.152-1.266-1.886-2.207-4.272-2.645-6.705-.13-.718-.235-1.4-.235-1.519 0-.2.151-.213 2.285-.213h2.285l.001 4.19Zm17.217-1.51c.689 1.373 1.15 1.938 1.688 2.071.14.035.88.16 1.644.277 1.343.207 1.645.339 1.521.663-.03.08-.502.552-1.048 1.049-.545.496-1.095 1.106-1.222 1.354-.286.56-.287.997-.008 2.625.228 1.338.218 1.586-.066 1.586-.094 0-.775-.316-1.514-.703-1.11-.581-1.443-.703-1.918-.703-.475 0-.809.122-1.92.703-.74.387-1.424.703-1.52.703-.296 0-.31-.289-.074-1.592.125-.693.227-1.478.227-1.745 0-.662-.456-1.346-1.556-2.335-.49-.44-.915-.864-.945-.943-.125-.325.181-.454 1.58-.667.796-.121 1.541-.25 1.654-.286.501-.159.958-.74 1.62-2.058.538-1.074.748-1.39.928-1.39.18 0 .391.316.93 1.39Zm-1.515 21.17c.29.03 1.104.004 1.81-.059.705-.062 1.3-.096 1.32-.074.023.022-.068.29-.2.599-.99 2.31-1.059 5.329-.18 7.917.162.48.296.939.296 1.02.001.112-.569.146-2.46.146-1.89 0-2.46-.034-2.46-.147 0-.08.134-.537.296-1.015.938-2.765.818-5.608-.354-8.367-.097-.227-.093-.227 1.932-.02Zm7.929 11.499c.223.106.547.378.72.605.293.384.319.511.355 1.742l.04 1.328H21.31l.04-1.328c.035-1.229.062-1.359.352-1.74.631-.825.314-.794 8.048-.797 6.208-.002 6.998.018 7.36.19Zm6.017 7.366v1.934H16.407v-3.868h26.718v1.934Z" fill="#fff"/></g></svg>