<svg width="53" height="60" fill="none" xmlns="http://www.w3.org/2000/svg"><path fill-rule="evenodd" clip-rule="evenodd" d="m28.76.114-4.431.264C22.6.48 22.027.57 21.55.817c-.8.412-1.34 1.005-1.738 1.905-.277.626-.314.91-.237 1.82.08.95.056 1.11-.206 1.346-.457.414-1.03 1.752-1.136 2.652-.122 1.033.23 2.461.883 3.577.646 1.107 2.624 3.066 4.913 4.866 2.134 1.68 3.28 2.272 5.105 2.638l1.277.255.342 1.012c.951 2.811 1.03 4.539.438 9.701a535.296 535.296 0 0 0-.498 4.462l-.077.782-1.379-.502c-.758-.277-2.749-1.051-4.423-1.722-3.363-1.346-5.436-1.998-7.45-2.342-1.978-.337-2.821-.306-3.221.12-.784.835-.147 2.055 1.074 2.055 1.986 0 4.566.739 9.538 2.73 1.846.739 3.974 1.541 4.731 1.783.756.243 1.493.509 1.636.592.144.084.386.152.54.152.153 0 .813.136 1.466.304.653.167 1.99.443 2.97.612 1.428.247 1.864.273 2.201.133.805-.333.962-1.565.257-2.006-.185-.116-1.147-.353-2.138-.528-.991-.175-2.14-.404-2.553-.508l-.75-.189.044-1.35c.024-.742.222-2.802.439-4.578.64-5.238.498-7.417-.711-10.862-.727-2.07-.996-2.354-2.232-2.354-1.01 0-2.242-.329-3.112-.831-1.092-.631-4.92-3.805-5.657-4.691-.887-1.065-1.374-2.278-1.244-3.099.052-.322.13-.644.174-.716.044-.072.378.132.742.452s.95.684 1.303.809c1.448.51 4.74 1.326 5.34 1.322 1.3-.008 2.366-.735 2.979-2.031.586-1.241.401-2.614-.469-3.485-.576-.576-1.063-.63-1.631-.183-.457.358-.54 1.213-.166 1.707.31.41.274.87-.1 1.273-.393.42-.693.387-3.484-.394-2.316-.649-2.756-.983-3.153-2.399-.323-1.152-.316-1.424.049-1.815.4-.43.561-.45 5.974-.721 5.016-.252 5.407-.224 6 .427.474.52.556.736 1.679 4.42 1.188 3.894 1.81 5.428 3.308 8.149a125.619 125.619 0 0 1 8.8 19.88c.562 1.64 1.117 3.076 1.233 3.191.589.59 1.632.344 1.911-.45.127-.36-.016-.913-.93-3.621-2.337-6.916-5.031-13.002-9.04-20.422-1.473-2.726-1.849-3.677-3.1-7.832-.533-1.772-1.104-3.488-1.27-3.811-.433-.85-1.275-1.63-2.237-2.074-.993-.457-2.244-.525-5.795-.314ZM9.38 31.86c-.669.668-.369 1.761.538 1.96.796.175 1.62-.615 1.43-1.37-.238-.947-1.296-1.263-1.969-.59Zm-6.001 1.79C.934 34.722.337 35.044.155 35.384.053 35.577 0 39.051 0 45.58c0 9.215.018 9.927.263 10.218.655.778 7.948 2.982 12.202 3.687 5.266.873 10.825.63 15.618-.681.93-.255 8.414-2.34 18.022-5.024 4.445-1.241 6.47-3.022 6.711-5.9.083-.98.064-1.068-.301-1.433-.839-.839-2.052-.253-2.059.993-.006 1.283-.744 2.286-2.233 3.038-.727.368-2.674 1.017-4.07 1.357-.455.11-3.868 1.057-7.585 2.103-9.082 2.556-9.668 2.712-11.488 3.06-6.29 1.203-12.762.583-20.387-1.953l-2.29-.762V36.752l.576-.294c.318-.161 1.18-.54 1.915-.84.736-.3 1.457-.683 1.601-.851.6-.7.024-1.934-.894-1.918-.23.004-1.23.364-2.222.8Zm46.99 7.954c-.293.252-.41.494-.41.85s.117.598.41.85c.504.434.98.447 1.497.04.56-.44.56-1.34 0-1.78-.517-.407-.993-.394-1.498.04Z" fill="#fff"/></svg>