<svg width="60" height="60" fill="none" xmlns="http://www.w3.org/2000/svg"><mask id="a" style="mask-type:alpha" maskUnits="userSpaceOnUse" x="0" y="0" width="60" height="60"><path fill="#fff" d="M0 0h60v60H0z"/></mask><g mask="url(#a)"><path fill-rule="evenodd" clip-rule="evenodd" d="M13.008 3.688c-2.896 2.028-5.296 3.785-5.333 3.905-.037.12-.772 4.447-1.633 9.617C4.362 27.3 4.101 28.562 2.29 35.365.508 42.06.13 44.277.016 48.688c-.1 3.854.287 7.335.888 7.99.744.809 6.25 2.217 10.945 2.799 3.322.411 5.32.522 9.435.523 5.098.001 9.133-.278 13.872-.958 4.732-.68 9.582-2.355 17.426-6.019 4.268-1.994 6.73-3.256 6.874-3.526.087-.163.13-3.178.13-9.068v-8.824l-.283-.283c-.203-.204-.65-.362-1.586-.561-2.86-.61-3.794-.7-7.19-.703-3.578-.003-4.472.108-6.614.822-2.264.754-4.611 2.295-5.989 3.93-.832.988-.75.968-2.572.642-1.502-.27-4.217-.278-5.71-.018-3.377.587-6.747 2.373-9.633 5.105l-1.181 1.118.07-1.74c.19-4.674.2-5.88.077-9.3-.073-2.028-.188-4.305-.256-5.061-.114-1.282-.096-1.541.28-3.843.32-1.96.443-2.468.595-2.467.105.001 1.175.17 2.378.374s2.37.372 2.593.373c.557.002 7.741-4.152 7.942-4.593.11-.243.05-.65-.313-2.12l-.451-1.82.387-.325c1.456-1.225 1.866-2.401 1.333-3.817-.526-1.394-2.559-3.013-5.031-4.005C26.862 2.683 18.859 0 18.549 0c-.157 0-2.526 1.577-5.54 3.688Zm10.108-.11c2.36.798 4.601 1.588 4.98 1.755 1.684.745 3.38 2.091 3.567 2.831.174.693-.58 1.468-2.272 2.335-2.735 1.402-4.948 1.382-6.274-.056-.267-.29-.507-.594-.535-.677-.036-.107-.286-.055-.861.176-.446.18-.864.377-.928.439-.152.146.704 1.39 1.293 1.879 1.22 1.013 2.97 1.48 4.618 1.23.786-.12 2.134-.528 3.03-.919.166-.073.246.088.455.922l.253 1.01-1.017.597c-.56.329-1.922 1.117-3.026 1.751l-2.01 1.154-2.926-.49c-3.08-.516-3.33-.515-3.657.006-.1.158-.416 1.674-.704 3.368-.522 3.073-.523 3.087-.388 4.687.409 4.855.408 12.752-.003 17.88-.127 1.59-.12 1.814.061 2.092.113.17.344.346.515.389.596.15.895-.045 1.597-1.043 2.734-3.88 6.62-6.576 10.668-7.397.893-.18 1.747-.257 2.882-.257 1.684 0 2.408.091 4.127.52.566.142 1.17.222 1.34.18.197-.05.476-.337.761-.782 1.222-1.91 3.39-3.532 5.83-4.363 1.866-.635 2.713-.742 5.847-.734 2.83.006 4.794.175 6.623.567l.625.134v1.378c0 1.26-.018 1.37-.219 1.292-.12-.047-.71-.218-1.312-.38-1.682-.452-3.26-.606-5.328-.521-2.651.108-4.567.58-6.95 1.71-1.846.877-1.781.78-1.182 1.76l.503.824 1.166-.585c2.386-1.197 4.384-1.661 7.199-1.674 2.223-.01 3.318.15 5.155.752l.968.317V48.36l-1.843.922c-7.852 3.927-14.557 6.572-18.88 7.447-3.42.692-8.535 1.14-13.96 1.22-7.101.106-12.096-.378-17.24-1.67-2.192-.55-3.183-.92-3.252-1.217-.374-1.607-.535-5.9-.319-8.463.292-3.458.614-4.997 2.674-12.796 1.356-5.13 1.551-6.102 3.194-15.867l1.577-9.37 4.56-3.21c2.51-1.765 4.6-3.215 4.644-3.22.045-.007 2.014.642 4.374 1.441Zm19.1 19.426c-.79 1.857-1.437 3.434-1.437 3.505 0 .113 1.688.915 1.747.83.03-.043 2.789-6.508 2.888-6.767.056-.145-.101-.273-.611-.499-.378-.167-.791-.336-.918-.375-.2-.061-.427.388-1.669 3.306Zm-7.248-3.116c-.24.067-.641.175-.89.24l-.454.118.992 3.965c.546 2.18 1.007 3.978 1.023 3.994.017.017.224-.02.461-.083.237-.062.662-.174.946-.247l.516-.134-1-3.998c-.55-2.199-1.035-3.993-1.078-3.987a9.334 9.334 0 0 0-.516.133Zm-8.405 5.14-.72.653 2.451 2.936c1.349 1.616 2.488 2.95 2.533 2.965.044.015.401-.266.794-.625l.715-.653-2.464-2.96c-1.355-1.629-2.492-2.963-2.527-2.965-.034-.003-.386.29-.782.648ZM6.868 36.459c-1.237 4.411-2.348 8.655-2.526 9.657-.218 1.226-.188 3.804.058 5.045.108.543.227 1.017.264 1.054.038.038.467-.06.954-.217l.886-.285-.084-.52c-.475-2.921-.365-4.024.864-8.642a456.012 456.012 0 0 1 1.606-5.873l.675-2.375-.889-.28c-.488-.155-.923-.28-.967-.281-.043 0-.422 1.222-.84 2.717Zm23.83 2.783c-.969.164-1.98.495-2.91.953-.894.442-2.67 1.715-2.776 1.992-.052.136.341.592 1.053 1.218.255.224.273.217.986-.364.92-.749 2.476-1.499 3.606-1.738 1.596-.337 3.53-.19 4.983.381.266.105.499.174.516.154.097-.11.812-1.61.812-1.703 0-.164-1.475-.618-2.705-.833-1.14-.199-2.597-.223-3.565-.06Zm-8.841 6.048-.921.928.595.697c.328.383.66.697.74.697.08 0 .563-.421 1.075-.936l.93-.937-.68-.688c-.373-.378-.71-.688-.748-.688-.039 0-.485.417-.991.927Z" fill="#fff"/></g></svg>