<svg width="55" height="60" fill="none" xmlns="http://www.w3.org/2000/svg"><path fill-rule="evenodd" clip-rule="evenodd" d="M13.764.1c-1.491.447-2.49 1.634-2.698 3.205-.2 1.504.875 3.238 2.355 3.8.282.107.308.165.252.558-.034.24-.129 1.492-.21 2.78-.122 1.93-.12 2.737.012 4.575.087 1.228.163 2.443.168 2.701l.008.47-.924.083c-1.87.17-4.391.786-5.11 1.248-.822.53-1.107 1.137-1.114 2.38-.008 1.188.169 1.508.833 1.508.633 0 .861-.327.861-1.237 0-1.002.204-1.214 1.5-1.564 2.269-.612 5.248-.857 7.415-.61 1.377.158 3.16.503 4.047.785.867.275.997.482.997 1.584 0 .509-.026.925-.057.925-.032 0-.52-.134-1.084-.298-2.223-.644-4.876-.91-7.412-.746-2.441.16-2.825.311-2.825 1.116 0 .559.485.912 1.114.812 1.175-.188 3.525-.28 4.708-.184 1.476.12 3.284.47 4.62.891l.936.296v1.168c0 .642-.022 1.168-.05 1.168-.026 0-.594-.182-1.26-.404-1.83-.609-2.985-.768-5.569-.769-2.908 0-4.652.313-6.284 1.13-.304.153-.608.277-.675.277-.07 0-.12-.31-.12-.742 0-.624-.044-.782-.272-.997-.35-.328-.913-.332-1.206-.008-.187.205-.23.469-.263 1.59l-.04 1.345-.99.95c-1.905 1.829-3.131 3.908-3.721 6.308-.229.929-1.588 10.692-1.682 12.081-.313 4.608 2.516 9.11 6.829 10.869 2.078.847 2.892.807 2.963-.146.044-.601-.192-.827-1.11-1.061-.376-.096-1.16-.406-1.74-.688-1.913-.93-3.293-2.31-4.223-4.223-.876-1.8-1.151-3.504-.89-5.513.832-6.428 1.455-10.56 1.723-11.435 1.133-3.691 3.965-6.5 7.636-7.574 1.993-.582 5.852-.603 8.048-.043 3.966 1.012 7.18 3.619 9.027 7.322 1.28 2.566 1.726 5.997 1.008 7.75-.245.599-.912 1.625-.999 1.538-.014-.014-.322-1.714-.684-3.777-.362-2.063-.713-3.923-.78-4.134-.19-.604-.831-.806-1.366-.432-.195.137-.26.3-.26.649 0 .256.376 2.563.837 5.125 1.15 6.398 1.178 7.558.239 9.904-.925 2.31-2.743 4.14-5.077 5.108-1.49.619-2.346.732-5.539.732-2.718 0-2.878.012-3.172.243-.433.341-.427.937.014 1.284.317.249.378.252 3.607.2 2.516-.04 3.456-.097 4.018-.244 3.393-.882 6.024-2.992 7.482-6 .85-1.755 1.022-2.521 1.056-4.721l.03-1.907.575-.518c.53-.475.82-.846 1.374-1.748l.204-.333.73.702c2.01 1.93 4.645 2.974 7.503 2.974 2.399 0 4.359-.596 6.352-1.93.865-.58 6.289-5.933 7.156-7.063 3.287-4.283 2.965-10.368-.756-14.295-.68-.718-1.782-1.606-5.086-4.1-1.62-1.222-2.041-1.487-2.367-1.487a.83.83 0 0 0-.633 1.366c.062.075 1.482 1.175 3.155 2.446 2.954 2.243 4.027 3.21 4.662 4.21 2.22 3.49 2.006 7.823-.542 11-1.112 1.387-5.83 5.975-6.762 6.578-1.666 1.076-3.185 1.52-5.152 1.509-2.773-.017-5.04-1.028-6.918-3.085l-.774-.849v-.943c-.003-3.511-1.4-7.143-3.833-9.963-.843-.977-2.24-2.19-3.175-2.757l-.499-.303v-5.356l.516-.666c.681-.878 3.146-3.281 3.862-3.766.923-.625 2.66-1.391 3.781-1.669.822-.203 1.392-.26 2.633-.26 2 0 3.172.271 5.028 1.163.734.353 1.4.641 1.48.641.08 0 .285-.11.455-.243a.85.85 0 0 0 .051-1.278c-.41-.382-2.289-1.252-3.39-1.571-1.346-.39-3.18-.593-4.425-.492l-.996.08-2.826-2.815c-1.554-1.549-2.974-2.872-3.156-2.94-.626-.236-1.493-.15-2.293.229-.89.42-2.514 1.464-3.393 2.18-.348.284-.678.516-.732.516-.281 0-1.768-2.252-2.615-3.96-.888-1.792-.873-1.704-.386-2.273 1.951-2.28.475-5.817-2.514-6.023-.419-.029-.969.012-1.231.09Zm1.818 1.84c.602.307.968.845 1.033 1.516.15 1.556-1.407 2.598-2.781 1.862-.59-.316-1.062-1.06-1.062-1.675 0-.611.471-1.359 1.05-1.665.627-.331 1.163-.343 1.76-.038Zm1.672 8.88c.4.657 1 1.533 1.333 1.947l.607.752-.928 1.044c-.51.575-1.308 1.61-1.774 2.302-.465.691-.877 1.258-.915 1.26-.105.007-.332-2.308-.413-4.218-.066-1.53.084-4.996.265-6.128l.07-.439.514 1.143c.283.628.841 1.68 1.24 2.337Zm11.344 2.432 2.275 2.278-.41.172c-.226.094-.538.21-.693.259-1.389.43-3.942 2.313-5.505 4.06l-.53.592-.396-.493c-.22-.275-.626-.595-.914-.723l-.519-.229.754-.842c.415-.463 1.368-1.36 2.119-1.994 1.251-1.057 1.365-1.186 1.365-1.554 0-.5-.347-.871-.814-.871-.6 0-3.218 2.252-4.65 4l-.635.775-.91-.167c-1.546-.285-1.454-.252-1.332-.476.664-1.222 3.208-3.925 4.84-5.142 1.387-1.034 2.898-1.903 3.326-1.914.307-.007.652.29 2.629 2.27Z" fill="#fff"/></svg>