<svg width="49" height="60" fill="none" xmlns="http://www.w3.org/2000/svg"><path fill-rule="evenodd" clip-rule="evenodd" d="M10.49.19C5.316 1.11 1.19 5.199.225 10.367c-.097.52-.19 1.65-.205 2.51-.028 1.519-.02 1.571.249 1.79a.952.952 0 0 0 1.199.006c.254-.206.275-.328.355-2.14.116-2.606.504-3.918 1.71-5.783 1.46-2.255 3.842-3.966 6.518-4.68l.968-.259h26.396l.976.26c1.242.332 2.925 1.133 3.846 1.832 2.151 1.63 3.694 4.049 4.208 6.596.165.817.185 1.769.15 7.039-.044 6.62-.016 6.309-.738 8.147-.614 1.564-2.072 3.462-3.516 4.576l-.659.508-.706-.783c-.595-.659-.766-.782-1.087-.782-.46 0-.89.408-.89.844 0 .197.25.599.724 1.165 2.353 2.807 3.997 6.43 4.536 9.997l.104.686-.521.223c-.94.403-4.192 1.487-5.75 1.916-2.873.792-6.01 1.376-9.3 1.73-1.794.193-7.869.197-9.737.006-4.787-.49-10.378-1.855-13.96-3.409l-.997-.432.038-.41c.076-.811.519-2.64.92-3.8 2.339-6.758 8.11-11.8 15.259-13.331 1.476-.317 4.692-.437 6.326-.237a20.301 20.301 0 0 1 8.877 3.301c1.413.942 1.81 1.016 2.793.522a7.87 7.87 0 0 0 4.093-5.06c.212-.83.231-1.312.231-5.794 0-4.483-.02-4.965-.231-5.795-.69-2.694-3.017-5.02-5.648-5.64-1.123-.264-23.955-.264-25.078 0-2.63.62-4.959 2.946-5.648 5.64-.212.83-.231 1.312-.231 5.795 0 5.52.045 5.896.902 7.543.43.825 1.72 2.266 2.558 2.857l.352.248-.712.688a30.038 30.038 0 0 0-1.423 1.5l-.71.813-.572-.42c-1.349-.991-2.813-2.822-3.504-4.38-.681-1.539-.786-2.145-.865-5.018-.072-2.632-.078-2.683-.35-2.903a.952.952 0 0 0-1.206 0c-.275.224-.277.247-.264 2.435.015 2.391.145 3.45.6 4.907.755 2.41 2.429 4.767 4.483 6.311l.682.513-.286.46c-1.598 2.575-2.846 6.164-3.207 9.224-.2 1.695-.09 4.737.22 6.075.764 3.296 2.378 5.94 4.753 7.791 2.885 2.248 6.587 3.528 11.805 4.079 2.235.236 8.642.199 10.793-.063 8.55-1.04 13.47-4.173 15.52-9.88.659-1.836.845-3.076.845-5.622 0-2.45-.084-3.181-.606-5.28-.495-1.987-1.605-4.628-2.658-6.325l-.285-.46.66-.488c.363-.269 1.109-.963 1.657-1.543 1.618-1.71 2.678-3.74 3.207-6.14.23-1.045.246-1.473.25-6.805.005-6.089-.027-6.527-.61-8.388-1.168-3.731-4.18-6.835-7.891-8.13-2.112-.737-1.928-.728-15.829-.716C13.411.013 11.335.04 10.491.19Zm26.187 7.308c1.473.455 2.876 1.643 3.538 2.997.627 1.28.66 1.605.66 6.585 0 2.908-.048 4.833-.13 5.225-.313 1.498-1.409 3.036-2.73 3.832l-.656.394-1.087-.702c-2.76-1.784-5.712-2.9-8.904-3.366-1.62-.236-4.682-.236-6.305 0a22.303 22.303 0 0 0-8.939 3.406l-.989.655-.527-.27c-.736-.377-1.994-1.674-2.374-2.447-.643-1.308-.677-1.642-.677-6.687 0-5.023.032-5.345.66-6.625.642-1.313 1.971-2.46 3.42-2.954l.789-.27 11.748-.003c11.393-.002 11.771.004 12.503.23Zm-19.095 24.34-.288.287V40.124l.288.288c.159.158.425.288.592.288.167 0 .434-.13.592-.288.268-.268.288-.371.288-1.478v-1.19l1.555 1.475c1.391 1.32 1.598 1.475 1.976 1.478.524.004.808-.286.814-.828.004-.365-.149-.547-1.715-2.046l-1.718-1.644 1.714-1.623c1.613-1.527 1.715-1.65 1.715-2.063 0-.544-.287-.828-.83-.823-.352.003-.595.186-1.957 1.478l-1.554 1.474v-1.248c0-1.17-.018-1.267-.288-1.537-.158-.158-.425-.288-.592-.288-.167 0-.433.13-.592.288Zm8.915.107a3.61 3.61 0 0 0-1.02.775c-.677.79-.792 1.294-.792 3.463 0 2.17.115 2.673.792 3.463 1.21 1.414 3.54 1.414 4.751 0 .584-.681.792-1.361.792-2.582 0-1.435-.098-1.526-1.642-1.526-1.047 0-1.189.026-1.404.257-.59.634-.012 1.503 1 1.503.229 0 .286.06.286.299 0 .392-.284.93-.612 1.16-.337.236-1.254.236-1.591 0-.522-.365-.612-.745-.612-2.574 0-1.829.09-2.208.612-2.574.15-.104.505-.183.83-.183.596 0 .594-.001 1.487 1.027.287.33.7.337 1.102.02.533-.418.41-1.035-.383-1.912-.796-.882-2.426-1.16-3.596-.616Zm17.957 13.29-.078.84-1.546.585c-2.29.866-3.98 1.39-6.53 2.029-1.514.378-2.338.64-2.435.772-.242.329-.174.842.153 1.169.252.252.368.288.733.225 1.331-.23 4.284-1.045 6.622-1.83 1.468-.491 2.669-.854 2.669-.806 0 .048-.154.542-.343 1.096-1.578 4.64-5.777 7.465-12.65 8.511-5.037.767-12 .564-16.129-.47-4.5-1.127-7.473-3.052-9.268-6.003-.447-.733-1.053-2.19-1.2-2.88l-.08-.381.931.398c2.524 1.08 6.598 2.244 9.645 2.754 3.403.57 4.559.655 8.799.649 4.541-.006 6.97-.196 7.391-.577.287-.26.306-.841.04-1.221-.217-.31-.229-.31-3.795 0-2.36.204-8.13.074-10.4-.234-3.635-.493-6.657-1.224-9.426-2.28-1.315-.5-3.178-1.368-3.484-1.622-.171-.142-.222-2.092-.054-2.092.053 0 .62.214 1.26.475 3.688 1.503 7.82 2.542 12.367 3.109 2.028.253 7.46.353 9.737.18 5.132-.392 9.486-1.277 14.424-2.935l2.645-.887.04.293c.023.161.005.671-.038 1.133Z" fill="#fff"/></svg>