<svg width="100" height="98" fill="none" xmlns="http://www.w3.org/2000/svg"><path fill-rule="evenodd" clip-rule="evenodd" d="M12.117.613c-1.268.633-2.2 1.664-2.68 2.964-.164.446-.233 3.602-.244 11.12L9.18 25.197H5.657c-5.524 0-5.657.12-5.657 5.078 0 3.657.186 4.264 1.468 4.8l.68.284v11.114c0 6.113.056 11.264.126 11.445.191.498 1.223.87 1.802.65 1.016-.386.988-.053.995-12.032l.006-11.182h89.846v11.145c0 6.897.073 11.283.191 11.504.452.844 2.278.785 2.612-.085.07-.181.127-5.332.127-11.445V35.358l.68-.284c1.281-.536 1.467-1.143 1.467-4.8 0-4.959-.133-5.078-5.657-5.078h-3.522V4.164l-.612-1.226C89.575 1.67 88.544.738 87.244.26 86.777.087 77.513.026 49.982.015L13.342 0l-1.225.613Zm75.016 3.075.759.758v20.75H12.108V4.446l.759-.758.758-.758h72.75l.758.758ZM33.3 7.245c-2.158.277-4.176 1.787-5.142 3.85-.702 1.497-.746 4.126-.093 5.55 1.023 2.23 3.311 3.84 5.697 4.011 3.221.23 5.644-1.588 6.402-4.806.39-1.655.34-2.316-.214-2.87-.451-.451-.607-.48-2.637-.48-1.897 0-2.204.047-2.548.391-.592.593-.585 1.43.018 2.049.253.259.737.422 1.453.488l1.074.1-.364.677c-.5.928-1.193 1.398-2.233 1.516-2.413.271-4.382-1.633-4.206-4.066.201-2.78 3.1-4.396 5.598-3.122.998.51 1.676.514 2.176.014.376-.376.483-.744.396-1.367-.17-1.22-3.004-2.24-5.377-1.935Zm11.563.33c-.655.723-.423 1.444 1.328 4.133l1.66 2.548v2.71c0 2.444.04 2.759.405 3.223.56.712 1.56.712 2.12 0 .366-.464.405-.779.405-3.213v-2.698l1.66-2.548c1.785-2.738 1.986-3.397 1.259-4.124-.292-.291-.6-.385-1.123-.342-.676.057-.8.179-1.974 1.957l-1.253 1.897-1.286-1.897c-1.242-1.83-1.314-1.899-2.078-1.955-.578-.042-.88.04-1.123.309Zm16.015.047c-.277.218-.55.548-.608.733-.058.185-.542 2.751-1.076 5.702-.815 4.5-.933 5.443-.736 5.855.44.919 2.032 1.042 2.487.192.118-.22.417-1.54.666-2.936.248-1.395.492-2.577.54-2.626.05-.05.425 1.075.835 2.5.41 1.423.823 2.74.917 2.927.252.5 1.278.972 1.781.82.928-.281 1.256-.857 2.007-3.518.407-1.442.798-2.622.868-2.622.071 0 .337 1.165.59 2.588.51 2.85.848 3.467 1.902 3.467.673 0 1.41-.711 1.41-1.36 0-.44-1.856-10.307-2.067-10.99-.164-.528-1.055-1.127-1.679-1.127-1.003 0-1.376.633-2.298 3.906-.47 1.665-.908 3.136-.974 3.268-.067.132-.553-1.23-1.081-3.025-1.034-3.517-1.401-4.15-2.412-4.15-.313 0-.795.179-1.072.396ZM19.3 13.482c-.478.478-.566.692-.458 1.123.202.808.672 1.216 1.402 1.216 1.37 0 1.986-1.687.92-2.525-.705-.555-1.17-.508-1.864.186Zm59.536-.186c-.993.78-.462 2.525.767 2.525 1.615 0 2.181-2.056.747-2.71-.678-.308-.926-.278-1.514.185Zm18.236 16.978v2.149H2.928V28.126h94.144v2.148ZM37.11 39.692c-.98.66-1.168 1.177-1.171 3.23l-.003 1.806h-.692c-.84 0-1.652.72-1.652 1.465 0 .745.811 1.465 1.652 1.465h.692v1.806c.002 2.105.353 2.917 1.463 3.381.96.401 5.953.395 6.733-.008 1.147-.593 1.375-1.13 1.375-3.253v-1.927h8.984v1.927c0 2.122.228 2.66 1.375 3.253.78.403 5.773.41 6.733.008 1.11-.464 1.461-1.276 1.462-3.38v-1.808h.693c.84 0 1.652-.719 1.652-1.464 0-.738-.811-1.465-1.634-1.465h-.675l-.066-2.048c-.066-2.015-.077-2.057-.705-2.685l-.638-.639-3.113-.062c-4.604-.092-5.084.244-5.084 3.56v1.874h-8.984v-1.956c0-1.955 0-1.957-.669-2.686l-.667-.73-3.191-.06c-3.075-.06-3.216-.045-3.87.396Zm5.467 6.5v4.005H38.867v-8.008H42.578v4.004Zm18.555 0v4.005H57.422v-8.008H61.133v4.004Zm-46.256.94c-.564.6-.542 1.403.055 2 .466.465.56.479 3.391.479 2.65 0 2.959-.037 3.427-.405.645-.507.706-1.553.124-2.134-.357-.358-.65-.391-3.482-.391-2.978 0-3.106.016-3.515.452Zm63.249-.06c-.582.581-.521 1.627.124 2.134.468.368.776.405 3.427.405 2.831 0 2.925-.014 3.391-.48.616-.615.627-1.462.028-2.025-.425-.4-.64-.425-3.516-.425-2.803 0-3.097.033-3.454.39Zm-64.96 9.955c-.223.09-.64.443-.927.784l-.521.619.007 11.167c.007 12.076-.024 11.72 1.08 12.447.528.348.959.378 5.514.379 5.382.001 5.689-.052 6.407-1.112.354-.521.371-1.066.371-11.583 0-10.033-.03-11.09-.333-11.643-.63-1.151-1.14-1.249-6.435-1.235-2.616.007-4.939.086-5.162.177Zm19.344.085c-.328.143-.767.513-.977.823-.369.544-.383 1.051-.435 15.163l-.053 14.6H5.077V63.46l-.48-.48c-.263-.264-.707-.48-.985-.48s-.722.217-.985.48l-.48.48v24.231l-.68.284c-.373.156-.859.575-1.08.93-.37.598-.397.904-.346 4.032l.055 3.385.73.668.73.668H98.445l.73-.668.729-.668.055-3.385c.051-3.128.024-3.434-.346-4.031-.221-.356-.707-.775-1.08-.93l-.68-.285V63.461l-.48-.48c-.61-.61-1.36-.61-1.97 0l-.48.48V87.698H68.955l-.053-14.6c-.05-13.712-.075-14.632-.407-15.12-.806-1.188-.046-1.141-18.525-1.133-13.575.006-16.981.058-17.46.267Zm43.701.047c-1.347.675-1.308.3-1.308 12.57 0 12.024-.04 11.598 1.136 12.314.574.35 1.008.38 5.602.373 5.39-.006 5.575-.038 6.261-1.08.362-.549.378-1.03.379-11.757l.001-11.185-.668-.73-.668-.729-5.045-.05c-4.367-.042-5.132-.005-5.69.274Zm-53.946 4.269v1.66h-7.617v-3.32h7.617v1.66Zm26.172 12.305v13.965H33.984V59.767h14.454v13.965Zm17.58 0v13.965h-14.65V59.767H66.016v13.965Zm19.336-12.306v1.66h-7.618v-3.32h7.618v1.66ZM22.219 72.805l.05 6.69h-7.621V66.008l3.76.053 3.76.053.05 6.69Zm63.134-.05v6.74h-7.618v-6.609c0-3.635.059-6.667.13-6.738.072-.072 1.786-.13 3.81-.13h3.678v6.738ZM42.788 71.61c-.332.421-.405.793-.405 2.042 0 1.771.237 2.43.968 2.685.624.218 1.64-.14 1.834-.646.07-.181.127-1.099.127-2.038 0-1.533-.046-1.751-.452-2.133-.64-.6-1.56-.56-2.072.09Zm12.324-.062c-.368.392-.424.676-.424 2.132 0 .925.057 1.83.127 2.011.194.506 1.21.864 1.834.646.73-.255.968-.914.968-2.685 0-1.249-.073-1.62-.404-2.042-.53-.672-1.5-.701-2.1-.062Zm41.96 21.13v2.051H2.928v-4.102h94.144v2.051Z" fill="#EA1C29"/></svg>