<svg width="100" height="100" fill="none" xmlns="http://www.w3.org/2000/svg"><path fill-rule="evenodd" clip-rule="evenodd" d="M67.726.23c-.837.158-2.332.59-3.322.96l-1.8.672-1.886-.459C56.364.344 55.3.231 49.707.231c-4.714 0-5.537.05-7.719.46C35.7 1.871 30.223 4.03 25.184 7.315c-2.79 1.818-3.518 2.48-3.518 3.201 0 .698.77 1.535 1.412 1.535.25 0 1.064-.446 1.81-.99 9.226-6.728 21.338-9.507 32.638-7.488l1.814.325-1.572 1.53-1.572 1.531-1.29-.173c-7.387-.993-15.079.301-22.004 3.703-10.53 5.172-18.388 14.858-21.093 25.999-.395 1.624-.561 2.677-1.004 6.35l-.094.781-1.117.042c-.615.023-1.403.093-1.752.155-.626.113-.635.103-.631-.628.005-1.139.507-4.626.977-6.801 1.316-6.082 4.375-12.465 8.264-17.242 1.6-1.964 1.73-2.854.512-3.485-.807-.417-1.352-.124-2.629 1.415-5.218 6.29-8.695 14.53-9.76 23.132-.164 1.333-.3 2.987-.3 3.675v1.252L3.05 46.349c-.674.668-1.508 1.744-1.853 2.39C.008 50.971-.053 51.615.021 61.096c.064 8.162.085 8.57.488 9.643.871 2.317 2.496 4.08 4.841 5.25 1.464.73 3.775 1.325 5.218 1.343.415.006.603.164.873.734 1.585 3.341 6.332 4.013 8.906 1.26 1.607-1.718 1.53-.708 1.47-19.496l-.053-16.6-.432-.809c-1.177-2.202-3.78-3.505-6.007-3.005-.517.116-.98.17-1.028.123-.181-.181.598-3.402 1.35-5.584 3.093-8.974 9.547-16.277 18.232-20.632 6.462-3.239 13.177-4.498 19.743-3.701l.79.096-.644 1.334c-1.003 2.081-1.45 4.071-1.564 6.962-.115 2.937.194 5.007 1.136 7.612.675 1.868 2.118 4.308 3.37 5.7l.865.964.074 2.312c.071 2.248.088 2.325.62 2.782.3.258.678.47.84.47.162 0 1.166-.362 2.231-.804l1.936-.804 1.422.503c2.26.797 3.58.999 6.405.98 2.174-.016 2.982-.11 4.592-.53 2.39-.624 5.06-1.914 6.892-3.33l1.373-1.062.305.813c.484 1.29 1.25 4.067 1.402 5.087l.14.933-.757-.16a5.865 5.865 0 0 0-6.39 2.957l-.424.792v34.012l.535.912c1.398 2.379 4.445 3.56 6.725 2.607.385-.162.748-.293.805-.293.057 0 .05 1.077-.014 2.394-.13 2.656-.511 4.07-1.525 5.65-1.237 1.928-3.526 3.569-5.67 4.063-.47.109-1.824.2-3.006.202l-2.15.004-.563-1.08c-.608-1.164-1.274-1.818-2.54-2.496-.774-.414-1.01-.43-6.276-.43h-5.471l-.977.52c-2.07 1.102-3.02 2.691-3.02 5.051 0 2.366 1.128 4.185 3.168 5.108.978.442 1.251.466 6.017.523 4.693.057 5.06.036 6.101-.353 1.354-.507 2.666-1.731 3.175-2.963l.372-.9 2.84-.093c2.411-.079 3.04-.168 4.159-.585 1.888-.705 3.354-1.638 4.72-3.005 1.405-1.405 2.296-2.828 3.006-4.801.49-1.364.52-1.657.59-5.979l.075-4.544h.852c3.507 0 7.29-2.348 8.82-5.474.994-2.031 1.07-2.949.995-12.12-.066-8.012-.084-8.347-.501-9.463-.595-1.588-1.453-2.868-2.666-3.977l-1.023-.936-.124-2.145c-.336-5.808-1.977-11.79-4.77-17.385-1.258-2.52-1.264-2.54-1.134-3.76.687-6.412-1.144-11.68-5.581-16.057-2.28-2.249-5.604-4.112-8.778-4.922-2.166-.552-5.595-.68-7.676-.285Zm5.659 2.927c5.77.936 10.245 4.376 12.294 9.45.92 2.281 1.141 3.498 1.14 6.286-.001 3.192-.306 4.552-1.646 7.337-1.963 4.08-5.534 6.922-10.16 8.085-3.419.858-6.213.74-9.381-.397-2.321-.834-2.491-.847-3.74-.291-.607.27-1.157.436-1.222.37-.065-.064-.119-.745-.119-1.513 0-1.345-.025-1.42-.7-2.069-1.787-1.72-3.383-4.382-4.215-7.034-.393-1.25-.458-1.863-.457-4.292.002-3.268.344-4.81 1.64-7.387 2.32-4.616 6.341-7.626 11.418-8.548 1.888-.342 3.022-.342 5.148.003Zm-4.557 4.99c-2.28.904-3.977 3.253-3.977 5.506 0 .929.071 1.164.434 1.417 1.067.748 2.187.186 2.395-1.202.182-1.22.54-1.879 1.353-2.5 2.197-1.676 5.242-.121 5.242 2.678 0 1.704-1.538 3.266-3.23 3.28-.314.002-.749.207-1.025.483-.468.469-.48.552-.474 3.47.007 3.184.089 3.503.989 3.84.55.204 1.298-.026 1.67-.516.17-.224.256-1.017.26-2.41l.006-2.075.954-.396c1.326-.552 2.444-1.628 3.142-3.026.496-.991.594-1.42.594-2.588 0-.77-.14-1.811-.311-2.313-.405-1.19-1.83-2.76-3.088-3.402-1.378-.704-3.51-.81-4.934-.246ZM89.948 30.3c1.149 2.915 2.133 6.747 2.535 9.868.446 3.467.462 3.348-.423 3.142-.403-.093-1.192-.172-1.755-.175-1.175-.005-1.062.217-1.418-2.792-.28-2.365-1.128-5.77-2.053-8.241l-.702-1.876.468-.633c.257-.349.758-1.152 1.114-1.786l.645-1.152.337.664c.186.364.749 1.706 1.252 2.981Zm-19.62-2.757c-.272.14-.562.528-.666.89-.414 1.447 1.486 2.45 2.411 1.272.456-.579.434-1.484-.046-1.952-.389-.38-1.18-.478-1.699-.21ZM46.333 38.915c-4.47.853-8.215 2.73-11.385 5.71-4.953 4.654-7.426 11.201-6.824 18.066.812 9.254 7.65 17.004 17.098 19.376 1.45.365 2.283.44 4.875.44 3.368 0 5.243-.325 7.772-1.347l1.176-.475 2.296.966c2.533 1.066 2.505 1.059 3.197.743.708-.322.899-1.11.899-3.72v-2.32l1.319-1.532c2.123-2.466 3.547-5.138 4.493-8.43.654-2.276.832-6.921.36-9.423-1.123-5.967-4.598-11.426-9.31-14.626-1.798-1.222-4.615-2.49-6.774-3.049-2.396-.62-6.942-.808-9.192-.379Zm7.477 3.023c7.062 1.466 12.28 6.366 14.487 13.606.495 1.623.538 2.025.548 5.18.01 3.004-.043 3.609-.436 4.964-.908 3.137-2.3 5.572-4.609 8.064l-1.294 1.397v1.898c0 1.44-.06 1.874-.245 1.798l-1.75-.708-1.504-.608-1.622.665c-2.812 1.152-4.021 1.381-7.288 1.38-3.013-.002-4.055-.174-6.5-1.072-5.056-1.858-9.521-6.149-11.36-10.916-3.922-10.175 1.394-21.535 11.725-25.052 2.952-1.005 6.766-1.236 9.848-.596Zm-36.247.616c.161.083.513.386.782.673l.488.523.052 16.272.052 16.272-.448.666c-.55.818-1.181 1.154-2.166 1.158-.904.004-1.719-.442-2.153-1.178-.289-.489-.32-2.092-.32-16.696 0-14.026.04-16.23.295-16.725.578-1.117 2.22-1.58 3.418-.965Zm67.578.17c.892.478.905.615 1.008 10.112.093 8.52.119 9.043.47 9.431.457.505 1.591.552 2.104.088.335-.303.357-.822.357-8.336v-8.012l1.386.116c2.654.223 4.953 1.76 6.01 4.017l.518 1.104v17.405l-.639 1.298c-.351.715-.963 1.583-1.358 1.931-1.098.964-3.006 1.778-4.438 1.893l-1.237.1-.078-2.687c-.074-2.529-.105-2.707-.534-3.054a1.588 1.588 0 0 0-2.002.004c-.452.367-.463.454-.559 4.512l-.097 4.138-.73.668c-.593.543-.887.669-1.563.668-.482 0-1.098-.162-1.46-.382-1.305-.796-1.242.147-1.185-17.789l.052-16.224.61-.609c.922-.922 2.115-1.061 3.365-.392Zm-74.726 3.85c.278.106.309 1.522.309 14v13.883l-1.2-.135c-2.675-.303-4.892-1.781-5.973-3.983l-.546-1.112-.058-8.272c-.065-9.121-.016-9.604 1.143-11.29 1.088-1.581 2.962-2.724 4.945-3.014.553-.081 1.02-.159 1.038-.172.018-.013.172.029.342.094Zm34.7 4.767c-.582.583-.521 1.629.124 2.136.485.382.76.406 4.76.406s4.277-.024 4.762-.406c.645-.507.706-1.553.124-2.136-.368-.368-.651-.39-4.885-.39s-4.517.022-4.885.39Zm-4.21 8.3c-.264.263-.48.707-.48.985 0 .279.216.723.48.986l.48.48h8.584c9.54 0 9.27.038 9.53-1.306.096-.502.022-.72-.382-1.124l-.502-.502H41.384l-.48.48Zm4.21 8.12c-.242.242-.391.651-.391 1.075 0 .424.149.833.39 1.075.369.368.652.391 4.886.391s4.517-.023 4.885-.39c.242-.243.39-.652.39-1.076 0-.424-.148-.833-.39-1.075-.368-.368-.651-.391-4.885-.391s-4.517.023-4.885.391Zm24.608 24.205c1.805.968 1.821 3.684.028 4.693-.71.399-1.002.423-5.223.423-3.988 0-4.545-.04-5.152-.365-1.874-1.002-1.868-3.819.01-4.766.586-.296 1.282-.342 5.174-.342 3.983 0 4.574.04 5.163.357Z" fill="#EA1C29"/></svg>