<svg width="60" height="60" fill="none" xmlns="http://www.w3.org/2000/svg"><mask id="a" style="mask-type:alpha" maskUnits="userSpaceOnUse" x="0" y="0" width="60" height="60"><path fill="#fff" d="M0 0h60v60H0z"/></mask><g mask="url(#a)"><path fill-rule="evenodd" clip-rule="evenodd" d="M7.009.26c-.406.406-.494 1.158-.481 4.136.011 2.755.182 3.877.927 6.114.658 1.975 1.425 3.36 2.805 5.07.432.535.769.986.749 1.002-.02.016-.433.294-.916.617-1.991 1.334-4.08 3.475-5.227 5.357-.683 1.12-1.346 2.986-1.65 4.646-.288 1.57-.288 5.527 0 7.38 1.16 7.474 4.98 15.188 10.042 20.275 2.547 2.56 4.987 4.09 7.716 4.837 1.3.356 4.025.354 5.336-.005 1.04-.284 2.174-.812 2.985-1.388.302-.215.675-.391.827-.391.153 0 .647.245 1.098.545 2.755 1.831 6.559 2.05 9.975.573 7.682-3.321 15.01-15.19 16.033-25.97.164-1.728.078-4.397-.19-5.92-.276-1.561-.941-3.446-1.624-4.6-.773-1.305-2.949-3.584-4.41-4.619-1.891-1.337-3.777-2.17-5.978-2.64-1.244-.265-4.23-.294-5.45-.052-1.942.385-3.862 1.203-5.38 2.293l-.914.655.078-.5c.476-3.076 2.016-5.415 4.717-7.168.65-.421 1.293-.923 1.43-1.115.48-.673.708-1.34.71-2.074.004-.936-.26-1.676-.83-2.323-1.013-1.15-2.626-1.503-3.973-.87-1.468.69-3.846 2.988-5.264 5.087-.44.65-.833 1.257-.874 1.348-.064.14-.087.139-.153-.01a37.81 37.81 0 0 0-.518-1.028C25.823 4.14 18.323.554 8.77.044 7.312-.034 7.301-.033 7.01.26Zm5.194 4.139c5.247 3.165 9.6 7.152 12.33 11.29.44.668.8 1.26.8 1.316 0 .056-.41-.101-.91-.35-1.24-.615-2.387-1.012-3.81-1.319-.99-.213-1.57-.258-3.31-.256-1.908.003-2.218.032-3.225.309l-1.113.306-.743-.768c-1.965-2.029-3.264-4.948-3.713-8.34-.177-1.343-.24-4.022-.096-4.164.092-.093 2.067.936 3.79 1.976ZM14.07 2.64c7.695 1.625 12.352 4.999 13.726 9.945l.223.803-.294 1.014c-.162.557-.326 1.24-.365 1.518-.038.278-.112.462-.164.41-.052-.052-.366-.543-.7-1.09-1.462-2.41-4.385-5.762-6.843-7.849-1.532-1.3-3.91-3.038-5.582-4.08-.854-.532-1.52-.967-1.478-.967.04 0 .705.134 1.477.296Zm23.584 3.31c.436.253.69.745.69 1.34 0 .686-.188.916-1.385 1.705-2.62 1.726-4.438 4.22-5.175 7.103-.245.961-.473 2.668-.474 3.552 0 .568-.021.61-.381.76a2.147 2.147 0 0 1-1.58 0c-.498-.206-.553-.534-.389-2.305.31-3.331 1.492-6.388 3.394-8.769 1.104-1.384 3.444-3.476 4.055-3.627.324-.08.879.027 1.245.24ZM19.455 17.062c3.075.452 5.65 1.774 7.711 3.96 1.01 1.071 1.708 1.411 2.913 1.42 1.356.008 1.93-.29 3.343-1.744 1.8-1.852 3.59-2.904 5.94-3.492.858-.215 1.35-.257 2.909-.252 1.63.006 2.023.046 3.009.308 2.475.66 4.606 1.909 6.552 3.84 1.895 1.88 2.763 3.465 3.277 5.985 1.356 6.645-1.322 16.062-6.576 23.121-2.98 4.006-6.17 6.56-9.486 7.6-.75.236-1.11.275-2.462.267-1.389-.009-1.7-.048-2.547-.327a8.264 8.264 0 0 1-1.758-.854c-1.044-.707-1.428-.861-2.142-.861-.715 0-1.1.154-2.143.86a8.266 8.266 0 0 1-1.758.855c-.846.279-1.158.318-2.547.327-1.338.008-1.714-.032-2.435-.259-3.34-1.048-6.515-3.588-9.511-7.608-5.51-7.391-8.115-17.142-6.393-23.93.507-1.997 1.256-3.288 2.928-5.046 3.474-3.65 6.648-4.835 11.176-4.17Zm-7.104 3.895c-.325.05-.735.556-.735.905 0 .143.11.4.243.57.187.238.346.309.695.309.795 0 1.195-.814.706-1.435-.25-.318-.498-.413-.91-.349ZM9.585 24.03c-.51.448-1.167 1.697-1.474 2.802-.558 2.015-.607 5.155-.124 7.97.256 1.49 1.032 4.334 1.351 4.952.36.696 1.125.732 1.614.076l.237-.32-.489-1.555c-.905-2.884-1.269-5.366-1.154-7.887.098-2.16.51-3.625 1.322-4.71.388-.518.376-1.117-.029-1.436-.426-.335-.785-.304-1.254.108Zm42.295 5.974c-.41.167-.506.39-.7 1.651-.36 2.348-.36 2.4-.02 2.74.476.477 1.138.375 1.455-.224.165-.312.5-2.454.5-3.2 0-.5-.048-.63-.309-.835-.328-.258-.54-.288-.926-.132Zm-1.54 7.061c-.275.133-.483.573-1.1 2.323-.548 1.559-2.162 4.737-3.19 6.283-1.685 2.536-3.85 4.964-6.094 6.836-.96.802-1.025.884-1.025 1.304 0 .523.411.934.935.934.599 0 3.7-2.848 5.6-5.14 2.555-3.085 4.945-7.437 6.072-11.057.242-.777.12-1.266-.37-1.49-.347-.157-.49-.156-.829.008ZM11.184 41.99c-.14.068-.32.282-.4.476-.18.431-.108.643.72 2.138.594 1.073.884 1.35 1.412 1.35.33 0 .81-.519.81-.875 0-.165-.317-.897-.704-1.628-.817-1.543-1.14-1.799-1.838-1.461Z" fill="#fff"/></g></svg>