<svg width="85" height="100" fill="none" xmlns="http://www.w3.org/2000/svg"><path fill-rule="evenodd" clip-rule="evenodd" d="M14.285.342c-.316.265-.897 2.164-2.575 8.425-1.338 4.99-2.123 8.26-2.052 8.543.255 1.02 1.978 1.285 2.545.394.145-.229.935-2.917 1.754-5.974.819-3.057 1.529-5.598 1.577-5.646.049-.049.215.211.37.577.154.365 4.1 9.255 8.77 19.754 6.933 15.592 8.43 19.107 8.17 19.185-2.05.62-29.655 7.285-29.755 7.183-.075-.075 1.615-6.642 3.755-14.593 2.14-7.95 3.894-14.638 3.896-14.861.011-1.166-1.848-1.652-2.555-.669C7.828 23.156 0 51.983 0 52.8c0 .246.198.839.44 1.318.473.94 1.728 1.757 2.678 1.745.273-.004 5.243-1.183 11.044-2.621l10.55-2.615 7.646 4.672c7.62 4.655 8.268 4.976 9.055 4.482.161-.1 2.007-3.945 4.103-8.543l3.809-8.36 1.953-.505c1.075-.277 2.198-.566 2.497-.64.35-.087.651-.363.85-.782.283-.592.282-.7-.008-1.262-.177-.342-.531-.668-.8-.735-.271-.068-1.459.118-2.732.428-1.965.48-2.285.513-2.517.265-.27-.29-26.764-32.48-27.157-32.996-.119-.156.355.032 1.054.417 1.302.717 18.04 9.805 37.8 20.521 6.123 3.322 11.256 6.158 11.405 6.303.317.309.988.106-6.815 2.055-3.061.765-5.72 1.53-5.909 1.7-.462.42-.454 1.651.015 2.075.196.178.658.322 1.026.319 1.1-.01 12.88-3.046 13.444-3.467 1.864-1.39 1.643-4.175-.428-5.377-.826-.48-45.12-24.54-53.17-28.882C17.472 1.042 15.35 0 15.117 0c-.233 0-.607.154-.832.342ZM34.09 26.665c6.733 8.165 12.283 14.946 12.334 15.069.084.2-5.443 12.66-5.772 13.011-.075.08-4.432-9.545-9.681-21.39-5.25-11.845-9.629-21.712-9.732-21.927l-.186-.391.398.39c.22.216 5.907 7.072 12.64 15.238Zm32.221 17.181c-.666.666-.603 1.223.297 2.615 1.957 3.028 4.828 5.195 8.3 6.266 1.09.337 1.463.377 1.879.205.504-.209.96-.901.96-1.457 0-.56-.912-1.23-2.246-1.65-2.515-.792-4.792-2.505-6.256-4.707-1.251-1.883-2-2.207-2.934-1.272ZM60.17 46.94c-1.167.59-.92 2.206.714 4.676 1.061 1.605 2.501 2.902 4.1 3.694 1.099.544 1.253.574 1.754.334.302-.145.63-.493.728-.773.32-.908.019-1.452-1.177-2.127-1.56-.88-2.87-2.305-3.691-4.013-.646-1.342-1.248-2.047-1.743-2.04-.11.002-.419.114-.685.249Zm-24.392 4.506c.755 1.698 1.336 3.124 1.292 3.167-.044.044-1.898-1.032-4.12-2.39-2.223-1.36-4.003-2.51-3.956-2.557.123-.123 5.06-1.384 5.254-1.343.088.02.776 1.424 1.53 3.123Zm-15.486 7.378c-.368.368-.397.53-.25 1.417.09.55.167 1.88.17 2.954.004 1.728-.057 2.086-.532 3.1-.685 1.465-.69 2.123-.021 2.649 1.366 1.075 2.446.014 3.292-3.233.568-2.18.224-6.018-.623-6.954-.44-.486-1.519-.45-2.037.067Zm-7.12 1.012c-.503.434-.522.52-.493 2.296.048 2.956-.793 5.574-2.602 8.095-.844 1.177-.897 1.869-.186 2.428 1.017.8 1.777.451 3.024-1.386 1.859-2.737 2.581-5.105 2.6-8.53.015-2.405.014-2.41-.533-2.881-.686-.59-1.142-.596-1.81-.022Zm31.013 3.66c-.561.523-.545 1.233.07 3.065.68 2.026 2.028 4.66 3.47 6.78 1.494 2.195 4.754 5.48 7.026 7.08 3.195 2.248 7.406 4.119 10.854 4.82.79.161 1.476.334 1.526.384.05.05.176.694.279 1.43.442 3.163 1.435 5.621 3.118 7.718 1.971 2.456 4.507 4.135 7.338 4.86 1.943.496 2.819.492 3.469-.02 1.097-.863.353-2.525-1.131-2.525-.936 0-2.798-.537-3.907-1.126-1.623-.862-3.896-3.26-4.694-4.952-.765-1.624-1.279-3.422-1.279-4.483v-.711l2.198-.117c3.864-.205 6.874-1.39 9.035-3.557 3.486-3.496 3.736-8.211.603-11.346-1.427-1.427-2.636-1.918-4.658-1.891-4.436.058-8.683 5.328-9.919 12.307-.285 1.61.005 1.523-2.696.813-5.946-1.565-11.56-5.577-14.969-10.697-1.366-2.052-2.335-4.018-3.034-6.154-.242-.739-.605-1.508-.806-1.71-.482-.48-1.358-.466-1.893.032Zm34.387 8.4c2.454.682 3.558 3.855 2.23 6.41-1.116 2.151-3.266 3.606-6.22 4.213-1.65.338-4.258.415-4.258.126 0-.58.651-3.11 1.158-4.497 1.4-3.838 3.386-5.877 6.266-6.434.053-.01.424.072.824.183Z" fill="#fff"/></svg>