<svg width="91" height="100" fill="none" xmlns="http://www.w3.org/2000/svg"><path fill-rule="evenodd" clip-rule="evenodd" d="M43.699.427c-.546.362-1.05 1.218-2.844 4.835-1.2 2.417-2.21 4.454-2.247 4.526-.036.073-2.242.444-4.902.827-2.66.382-5.099.83-5.42.995-.989.512-1.488 1.606-1.277 2.8.108.608.687 1.264 3.827 4.33l3.7 3.614-.79 4.492c-.434 2.471-.795 4.819-.803 5.217-.028 1.486 1.359 2.821 2.72 2.618.35-.052 2.547-1.089 4.883-2.304 2.336-1.216 4.337-2.234 4.447-2.264.11-.03 2.132.963 4.493 2.208 2.36 1.244 4.524 2.31 4.806 2.37.764.158 2.229-.56 2.598-1.274.445-.86.393-1.582-.48-6.57l-.787-4.493 3.693-3.614c3.164-3.096 3.711-3.719 3.823-4.347.178-.995-.424-2.354-1.227-2.77-.327-.168-2.774-.623-5.438-1.01-2.664-.388-4.858-.718-4.874-.733a432.74 432.74 0 0 1-2.258-4.52c-1.809-3.65-2.35-4.575-2.88-4.933-.845-.57-1.903-.57-2.763 0Zm3.513 7.17c2.046 4.196 2.579 4.943 3.68 5.162.299.06 2.169.334 4.156.61 1.988.275 3.867.55 4.177.613.548.11.47.206-2.895 3.574-3.105 3.109-3.468 3.54-3.551 4.228-.053.435.238 2.66.674 5.16.422 2.417.746 4.42.72 4.45-.025.029-1.912-.928-4.192-2.127-3.189-1.677-4.319-2.18-4.895-2.18-.576 0-1.706.503-4.895 2.18-2.28 1.199-4.168 2.156-4.196 2.126-.027-.03.31-2.168.751-4.752.704-4.124.771-4.772.55-5.307-.14-.335-1.776-2.11-3.638-3.946-1.862-1.835-3.326-3.339-3.255-3.342.072-.003 2.19-.304 4.705-.67 3.35-.486 4.71-.761 5.079-1.026.322-.232 1.28-1.895 2.653-4.604 1.182-2.333 2.2-4.242 2.262-4.242.063 0 1.012 1.842 2.11 4.093Zm-36.166 4.029c-.4.217-.915 1.043-1.991 3.191-1.372 2.739-1.488 2.905-2.097 3.009-.356.06-1.657.252-2.892.425-2.77.389-3.353.63-3.799 1.568-.588 1.24-.353 1.693 2.225 4.293l2.324 2.344-.47 2.735c-.26 1.504-.472 3.028-.473 3.388-.004.914.64 1.73 1.588 2.015.781.234.822.22 3.76-1.294l2.97-1.53 2.875 1.494c1.58.821 3.053 1.494 3.271 1.494.563 0 1.473-.507 1.832-1.02.413-.589.382-1.53-.155-4.69l-.456-2.684 2.305-2.25c2.538-2.477 2.796-2.963 2.256-4.255-.398-.953-.999-1.208-3.743-1.59a147.92 147.92 0 0 1-2.99-.44c-.608-.107-.727-.276-2.098-3.014-1.14-2.277-1.576-2.964-2.03-3.199-.722-.373-1.512-.37-2.212.01Zm65.97-.123c-.598.243-.787.538-2.234 3.489-1.264 2.577-1.369 2.727-1.988 2.835-.36.063-1.709.261-2.998.441-1.289.18-2.584.45-2.878.598-.95.483-1.4 1.891-.913 2.866.117.234 1.193 1.358 2.391 2.498l2.178 2.071-.523 3.189c-.577 3.51-.517 4.113.472 4.761 1.073.704 1.445.624 4.533-.973l2.916-1.509 2.905 1.514c2.476 1.29 3.001 1.496 3.555 1.392.794-.148 1.613-.873 1.792-1.585.075-.3-.087-1.844-.377-3.581l-.51-3.053 2.22-2.247c2.21-2.238 2.652-2.807 2.652-3.424 0-.603-.635-1.67-1.15-1.93-.28-.143-1.873-.454-3.538-.692-1.665-.238-3.044-.448-3.063-.468-.02-.02-.666-1.333-1.436-2.919-1.09-2.241-1.525-2.948-1.958-3.171-.606-.314-1.424-.355-2.047-.102Zm-63.59 6.111c.624 1.255 1.304 2.345 1.59 2.549.309.22 1.275.465 2.539.644 3.377.478 3.259.222 1.1 2.389-1.281 1.287-1.922 2.082-2.002 2.486-.065.327.07 1.633.301 2.902.23 1.269.38 2.347.33 2.396-.049.05-1.109-.443-2.355-1.094s-2.473-1.184-2.728-1.184c-.253 0-1.491.536-2.75 1.19-1.26.654-2.326 1.153-2.372 1.108-.045-.045.094-1.037.308-2.204.625-3.4.693-3.163-1.59-5.483-2.269-2.306-2.39-2.027 1.096-2.522 2.633-.374 2.749-.468 4.198-3.406.584-1.182 1.103-2.107 1.154-2.056.05.051.582 1.08 1.182 2.285Zm67.333 2.581c.228.16 1.531.46 2.896.67 1.365.208 2.522.419 2.57.468.049.048-.683.816-1.626 1.705-.943.89-1.822 1.803-1.953 2.03-.33.572-.293 1.65.132 3.927.2 1.075.335 1.984.299 2.02-.037.037-1.096-.469-2.355-1.123-1.26-.654-2.511-1.19-2.782-1.19-.271 0-1.499.533-2.728 1.184-1.229.65-2.28 1.139-2.334 1.084-.055-.055.094-1.196.332-2.535.247-1.389.371-2.63.29-2.89-.078-.251-.977-1.309-1.998-2.35-2.124-2.168-2.24-1.913 1.092-2.385 1.108-.157 2.23-.425 2.491-.597.28-.183.97-1.297 1.671-2.696l1.196-2.384 1.196 2.386c.658 1.312 1.383 2.517 1.611 2.676ZM43.528 37.932c-1.421.726-1.781 1.405-3.499 6.592-.871 2.633-1.584 4.974-1.584 5.204 0 1.131 1.542 1.744 2.345.933.204-.206 1.089-2.484 1.966-5.062.878-2.579 1.684-4.798 1.791-4.932.567-.706 2.528.35 3.632 1.955 1.414 2.055 1.475 3.317.428 8.884-.633 3.365-.657 3.642-.43 4.981.512 3 2.394 5.622 4.903 6.832.707.34 1.308.632 1.336.649.028.016-.143.46-.38.988-.317.705-.433 1.345-.439 2.423-.009 1.655.391 2.767 1.418 3.936l.609.694-.503.468c-.77.72-1.472 2.273-1.585 3.51-.139 1.537.237 2.904 1.15 4.178l.773 1.08-.587.734c-1.74 2.174-1.783 5.18-.105 7.377l.691.906-.682.755c-.707.783-1.29 2.33-1.29 3.42 0 .34.13 1.049.29 1.576.16.528.292.981.294 1.008 0 .027-.75.049-1.667.049-1.512 0-1.715.045-2.15.48-.263.263-.479.707-.479.985s.216.722.48.986l.48.479 9.53-.001c6.05 0 9.802-.076 10.27-.206.988-.275 2.076-1.263 2.537-2.305.325-.736.368-1.218.311-3.53l-.065-2.679.742-.65c1.35-1.186 1.596-1.91 1.597-4.693 0-1.343-.067-2.681-.148-2.974-.134-.477-.074-.57.586-.91.868-.447 1.628-1.225 2.12-2.172.46-.886.628-4.5.269-5.783-.323-1.155-1.172-2.3-2.101-2.835l-.75-.432.086-2.703c.098-3.081-.086-4.044-.98-5.128a5.572 5.572 0 0 0-1.396-1.144c-.794-.425-.994-.436-9.406-.532l-8.595-.097-1.046-.58c-1.72-.953-2.771-2.42-3.191-4.455-.186-.897-.125-1.488.5-4.866.782-4.238.857-5.566.41-7.282-.644-2.474-2.538-4.912-4.628-5.956-1.47-.735-2.633-.781-3.858-.155Zm-6.572 17.033c-.222.155-.56.704-.753 1.22-1.066 2.863-3.119 5.989-5.046 7.685l-.898.79-.324-.642a5.164 5.164 0 0 0-2.136-2.175c-.713-.385-1.072-.422-4.102-.422-3.055 0-3.386.035-4.13.433-1.023.547-2.089 1.783-2.382 2.762-.155.517-.227 3.12-.227 8.215v7.458l.48.48c.61.61 1.36.61 1.97 0l.48-.48V65.448l.471-.549.472-.548h2.844c2.698 0 2.866.023 3.288.445l.445.445.053 15.34.052 15.34-.575.575-.574.574H21.03l-.571-.571-.571-.571V86.113l-.48-.479c-.263-.264-.707-.48-.985-.48s-.722.216-.986.48l-.48.48v4.918c0 3.29.08 5.184.238 5.722.317 1.073 1.936 2.691 3.008 3.008 1.054.312 5.934.312 6.987 0 .51-.15 1.177-.608 1.824-1.251l1.02-1.014 1.52.764c2.606 1.31 5.11 1.735 10.234 1.737 2.791.002 3.094-.032 3.565-.403.697-.548.712-1.56.03-2.096-.433-.34-.904-.39-4.54-.48-3.247-.079-4.358-.179-5.554-.5-2.578-.69-4.15-1.715-4.645-3.027-.139-.367-.208-4.682-.208-13.012V68.017l.83-.544c3.05-1.999 5.756-5.497 7.37-9.529.709-1.767.733-2.278.138-2.837-.523-.491-1.24-.547-1.818-.142Zm35.388 9.768c.452.451.48.606.48 2.646s-.028 2.194-.48 2.646l-.479.48h-6.461c-7.157 0-7.374-.033-8.278-1.219a3.043 3.043 0 0 1 1.04-4.593c.852-.43 1.023-.44 7.285-.44h6.414l.48.48Zm2.416 8.985c.815.422 1.044 1.189.965 3.24-.064 1.673-.103 1.814-.617 2.256l-.548.471h-7.969c-7.965 0-7.97 0-8.628-.444-1.415-.954-1.898-2.442-1.275-3.931.283-.679 1.3-1.572 1.974-1.736.215-.052 3.801-.105 7.97-.117 6.278-.019 7.673.026 8.128.261Zm-2.93 9.18c.815.423 1.044 1.19.965 3.24-.064 1.674-.103 1.815-.617 2.256l-.548.472h-6.344c-7.028 0-7.258-.034-8.16-1.218a3.043 3.043 0 0 1 1.04-4.593c.849-.428 1.034-.44 6.993-.44 4.971 0 6.225.053 6.67.284Zm-1.74 9.288c.335.336.39.652.39 2.247 0 2.815.432 2.637-6.417 2.637-5.529 0-5.649-.008-6.3-.442-1.35-.9-1.67-2.559-.724-3.76.785-.999 1.17-1.056 7.141-1.064 5.264-.008 5.537.01 5.91.382Z" fill="#EA1C29"/></svg>