<svg width="370" height="370" fill="none" xmlns="http://www.w3.org/2000/svg"><path d="M281.705 342.712a184.996 184.996 0 0 0 81.046-208.99 185 185 0 1 0-270.75 211.203L185 185l96.705 157.712Z" fill="url(#a)"/><path d="M89.628 343.522A184.999 184.999 0 0 1 184.542.001a185 185 0 0 1 96.614 343.046l-3.846-6.321A177.602 177.602 0 0 0 184.56 7.401a177.6 177.6 0 0 0-91.117 329.78l-3.815 6.341Z" fill="url(#b)"/><defs><linearGradient id="a" x1="185" y1="0" x2="185" y2="370" gradientUnits="userSpaceOnUse"><stop stop-color="#EA1C29" stop-opacity=".05"/><stop offset="1" stop-color="#fff"/></linearGradient><linearGradient id="b" x1="185" y1="0" x2="185" y2="370" gradientUnits="userSpaceOnUse"><stop stop-color="#EA1C29"/><stop offset="1"/></linearGradient></defs></svg>