<svg width="210" height="216" fill="none" xmlns="http://www.w3.org/2000/svg"><path fill="#EA1C29" d="M0 0h2.692v2.691H0zM29.615 0h2.692v2.691h-2.692zM59.231 0h2.692v2.691h-2.692zM88.846 0h2.692v2.691h-2.692zM118.461 0h2.692v2.691h-2.692zM148.077 0h2.692v2.691h-2.692zM177.692 0h2.692v2.691h-2.692zM207.308 0H210v2.691h-2.692zM0 42.483h2.692v2.691H0zM29.615 42.482h2.692v2.691h-2.692zM59.231 42.482h2.692v2.691h-2.692zM88.846 42.482h2.692v2.691h-2.692zM118.461 42.482h2.692v2.691h-2.692zM148.077 42.482h2.692v2.691h-2.692zM177.692 42.482h2.692v2.691h-2.692zM207.308 42.482H210v2.691h-2.692zM0 84.965h2.692v2.691H0zM29.615 84.965h2.692v2.691h-2.692zM59.231 84.965h2.692v2.691h-2.692zM88.846 84.965h2.692v2.691h-2.692zM118.461 84.965h2.692v2.691h-2.692zM148.077 84.965h2.692v2.691h-2.692zM177.692 84.965h2.692v2.691h-2.692zM207.308 84.965H210v2.691h-2.692zM0 127.448h2.692v2.691H0zM29.615 127.448h2.692v2.691h-2.692zM59.231 127.448h2.692v2.691h-2.692zM88.846 127.448h2.692v2.691h-2.692zM118.461 127.448h2.692v2.691h-2.692zM148.077 127.448h2.692v2.691h-2.692zM177.692 127.448h2.692v2.691h-2.692zM207.308 127.448H210v2.691h-2.692zM0 169.931h2.692v2.691H0zM29.615 169.931h2.692v2.691h-2.692zM59.231 169.931h2.692v2.691h-2.692zM88.846 169.931h2.692v2.691h-2.692zM118.461 169.931h2.692v2.691h-2.692zM148.077 169.931h2.692v2.691h-2.692zM177.692 169.931h2.692v2.691h-2.692zM207.308 169.931H210v2.691h-2.692zM0 212.414h2.692v2.691H0zM29.615 212.414h2.692v2.691h-2.692zM59.231 212.414h2.692v2.691h-2.692zM88.846 212.414h2.692v2.691h-2.692zM118.461 212.414h2.692v2.691h-2.692zM148.077 212.414h2.692v2.691h-2.692zM177.692 212.414h2.692v2.691h-2.692zM207.308 212.414H210v2.691h-2.692z"/></svg>