<svg width="210" height="470" fill="none" xmlns="http://www.w3.org/2000/svg"><path fill="#EA1C29" d="M0 0h2.692v2.691H0zM29.615 0h2.692v2.691h-2.692zM59.231 0h2.692v2.691h-2.692zM88.846 0h2.692v2.691h-2.692zM118.461 0h2.692v2.691h-2.692zM148.077 0h2.692v2.691h-2.692zM177.692 0h2.692v2.691h-2.692zM207.308 0H210v2.691h-2.692zM0 42.483h2.692v2.691H0zM29.615 42.482h2.692v2.691h-2.692zM59.231 42.482h2.692v2.691h-2.692zM88.846 42.482h2.692v2.691h-2.692zM118.461 42.482h2.692v2.691h-2.692zM148.077 42.482h2.692v2.691h-2.692zM177.692 42.482h2.692v2.691h-2.692zM207.308 42.482H210v2.691h-2.692zM0 84.965h2.692v2.691H0zM29.615 84.965h2.692v2.691h-2.692zM59.231 84.965h2.692v2.691h-2.692zM88.846 84.965h2.692v2.691h-2.692zM118.461 84.965h2.692v2.691h-2.692zM148.077 84.965h2.692v2.691h-2.692zM177.692 84.965h2.692v2.691h-2.692zM207.308 84.965H210v2.691h-2.692zM0 127.448h2.692v2.691H0zM29.615 127.448h2.692v2.691h-2.692zM59.231 127.448h2.692v2.691h-2.692zM88.846 127.448h2.692v2.691h-2.692zM118.461 127.448h2.692v2.691h-2.692zM148.077 127.448h2.692v2.691h-2.692zM177.692 127.448h2.692v2.691h-2.692zM207.308 127.448H210v2.691h-2.692zM0 169.931h2.692v2.691H0zM29.615 169.931h2.692v2.691h-2.692zM59.231 169.931h2.692v2.691h-2.692zM88.846 169.931h2.692v2.691h-2.692zM118.461 169.931h2.692v2.691h-2.692zM148.077 169.931h2.692v2.691h-2.692zM177.692 169.931h2.692v2.691h-2.692zM207.308 169.931H210v2.691h-2.692zM0 212.414h2.692v2.691H0zM29.615 212.414h2.692v2.691h-2.692zM59.231 212.414h2.692v2.691h-2.692zM88.846 212.414h2.692v2.691h-2.692zM118.461 212.414h2.692v2.691h-2.692zM148.077 212.414h2.692v2.691h-2.692zM177.692 212.414h2.692v2.691h-2.692zM207.308 212.414H210v2.691h-2.692zM0 254.896h2.692v2.691H0zM29.615 254.896h2.692v2.691h-2.692zM59.231 254.896h2.692v2.691h-2.692zM88.846 254.896h2.692v2.691h-2.692zM118.461 254.896h2.692v2.691h-2.692zM148.077 254.896h2.692v2.691h-2.692zM177.692 254.896h2.692v2.691h-2.692zM207.308 254.896H210v2.691h-2.692zM0 297.379h2.692v2.691H0zM29.615 297.379h2.692v2.691h-2.692zM59.231 297.379h2.692v2.691h-2.692zM88.846 297.379h2.692v2.691h-2.692zM118.461 297.379h2.692v2.691h-2.692zM148.077 297.379h2.692v2.691h-2.692zM177.692 297.379h2.692v2.691h-2.692zM207.308 297.379H210v2.691h-2.692zM0 339.86h2.692v2.691H0zM29.615 339.86h2.692v2.691h-2.692zM59.231 339.86h2.692v2.691h-2.692zM88.846 339.86h2.692v2.691h-2.692zM118.461 339.86h2.692v2.691h-2.692zM148.077 339.86h2.692v2.691h-2.692zM177.692 339.86h2.692v2.691h-2.692zM207.308 339.86H210v2.691h-2.692zM0 382.343h2.692v2.691H0zM29.615 382.344h2.692v2.691h-2.692zM59.231 382.344h2.692v2.691h-2.692zM88.846 382.344h2.692v2.691h-2.692zM118.461 382.344h2.692v2.691h-2.692zM148.077 382.344h2.692v2.691h-2.692zM177.692 382.344h2.692v2.691h-2.692zM207.308 382.344H210v2.691h-2.692zM0 424.826h2.692v2.691H0zM29.615 424.826h2.692v2.691h-2.692zM59.231 424.826h2.692v2.691h-2.692zM88.846 424.826h2.692v2.691h-2.692zM118.461 424.826h2.692v2.691h-2.692zM148.077 424.826h2.692v2.691h-2.692zM177.692 424.826h2.692v2.691h-2.692zM207.308 424.826H210v2.691h-2.692zM0 467.309h2.692V470H0zM29.615 467.309h2.692V470h-2.692zM59.231 467.309h2.692V470h-2.692zM88.846 467.309h2.692V470h-2.692zM118.461 467.309h2.692V470h-2.692zM148.077 467.309h2.692V470h-2.692zM177.692 467.309h2.692V470h-2.692zM207.308 467.309H210V470h-2.692z"/></svg>