<svg width="60" height="60" fill="none" xmlns="http://www.w3.org/2000/svg"><path fill-rule="evenodd" clip-rule="evenodd" d="M27.745.035 26.22.21C16.934 1.27 8.355 7.087 3.648 15.516 1.927 18.595.68 22.42.152 26.24c-.203 1.46-.203 6.046 0 7.506 1.238 8.937 5.996 16.51 13.461 21.423 9.787 6.441 22.932 6.441 32.723 0 6.913-4.547 11.687-11.66 13.145-19.587 1.824-9.915-1.21-19.736-8.282-26.803-4.67-4.667-10.32-7.5-17-8.519-1.17-.179-5.541-.331-6.454-.225Zm6.337 2.101C45.393 3.844 54.589 12.184 57.297 23.19c.621 2.522.775 3.873.775 6.803 0 2.93-.154 4.281-.775 6.803-1.368 5.56-4.515 10.693-8.84 14.418-4.21 3.625-8.967 5.81-14.492 6.656-1.886.289-6.103.288-7.98-.001-8.573-1.32-15.751-6.104-20.186-13.449-1.868-3.094-3.134-6.653-3.715-10.439-.288-1.88-.288-6.097 0-7.976C3.194 18.762 6.77 12.528 12.39 8.03c4.413-3.532 9.568-5.584 15.355-6.114 1.091-.1 5.15.042 6.337.221Zm-6.748 1.715c-8.88.84-16.933 6.448-20.947 14.589-4.348 8.817-3.34 19.471 2.584 27.328 1.242 1.647 1.657 2.053 2.098 2.053.486 0 .951-.45.951-.92 0-.254-.204-.591-.769-1.267-6.168-7.388-7.413-17.765-3.164-26.373A24.378 24.378 0 0 1 19.242 8.116c7.505-3.687 16.473-3.268 23.503 1.096 1.15.714 1.624.784 2.007.298.567-.72.18-1.238-1.736-2.325-4.76-2.7-10.183-3.853-15.682-3.334Zm1.99 3.91c-.28.28-.288.335-.288 2.058 0 1.723.008 1.778.288 2.058a.946.946 0 0 0 .65.288c.23 0 .47-.107.651-.288.28-.28.288-.335.288-2.058 0-1.723-.007-1.778-.288-2.058a.946.946 0 0 0-.65-.288.946.946 0 0 0-.651.288Zm16.898 2.698c-.548.548-.42.885.802 2.106.6.6 1.211 1.155 1.36 1.234.55.295 1.305-.202 1.305-.858 0-.292-.21-.564-1.209-1.562-1.037-1.036-1.263-1.208-1.59-1.208-.247 0-.48.1-.668.288Zm-27.739.255c-.134.17-.243.421-.243.558 0 .261 1.109 2.32 1.602 2.975.238.315.366.38.742.38.352 0 .51-.07.698-.308.134-.17.244-.424.244-.563 0-.253-1.375-2.754-1.729-3.145-.297-.33-1.018-.273-1.314.103Zm21.669-.103c-.354.39-1.728 2.892-1.728 3.145 0 .14.11.393.243.563.188.239.346.309.698.309.376 0 .505-.066.742-.381.493-.655 1.602-2.714 1.602-2.975 0-.136-.109-.388-.243-.558-.296-.376-1.016-.433-1.314-.103Zm-10.828 3.718-.288.288v6.398c0 5.727-.02 6.398-.184 6.398-.32 0-1.396 1.19-1.551 1.714-.325 1.1-.096 1.977.733 2.805.627.627 1.202.876 2.02.876h.463l2.516 4.363c1.384 2.4 2.64 4.51 2.79 4.692.33.395.908.443 1.32.109.553-.447.447-.694-2.385-5.584l-2.648-4.573.205-.295c.472-.678.59-1.526.333-2.393-.155-.525-1.231-1.714-1.55-1.714-.165 0-.185-.67-.185-6.398v-6.398l-.288-.288a.946.946 0 0 0-.65-.288.946.946 0 0 0-.651.288Zm21.144.894c-.487.382-.417.856.298 2.005 1.87 3.01 3.115 6.72 3.493 10.402 1.023 9.988-4.424 19.734-13.547 24.24a24.34 24.34 0 0 1-19.04 1.047c-2.268-.82-4.37-1.96-6.41-3.472-1.047-.777-1.436-.859-1.897-.397-.357.357-.375.865-.042 1.223.62.665 3.31 2.431 4.976 3.267 5.018 2.519 11.291 3.327 16.952 2.184 5.175-1.046 9.948-3.683 13.645-7.539 8.25-8.606 9.723-21.402 3.643-31.65-.918-1.546-1.39-1.846-2.071-1.31Zm-39.781 3.284c-.24.188-.31.346-.31.698 0 .377.066.503.382.737.664.492 2.733 1.606 2.984 1.606.132 0 .38-.11.55-.243.239-.188.31-.346.31-.698 0-.376-.067-.504-.382-.742-.656-.493-2.715-1.601-2.976-1.601-.137 0-.388.11-.558.243Zm36.596.414c-1.752.982-1.936 1.142-1.936 1.686 0 .352.07.51.31.698.17.134.423.243.563.243.253 0 2.755-1.373 3.146-1.727.33-.298.273-1.018-.103-1.314-.17-.134-.422-.243-.559-.243-.137 0-.776.296-1.421.657ZM7.732 29.343a.945.945 0 0 0-.288.65c0 .229.106.47.288.65.28.28.335.288 2.059.288 1.723 0 1.778-.007 2.059-.288a.945.945 0 0 0 .288-.65.945.945 0 0 0-.288-.65c-.28-.28-.335-.288-2.06-.288-1.723 0-1.778.007-2.058.288Zm22.893 0a.945.945 0 0 1 .288.65.945.945 0 0 1-.288.65c-.582.582-1.59.17-1.59-.65 0-.228.107-.469.289-.65a.946.946 0 0 1 .65-.288c.23 0 .47.106.651.288Zm17.475 0a.945.945 0 0 0-.288.65c0 .229.106.47.288.65.28.28.335.288 2.058.288 1.724 0 1.779-.007 2.06-.288a.945.945 0 0 0 .287-.65.945.945 0 0 0-.288-.65c-.28-.28-.335-.288-2.059-.288-1.723 0-1.778.007-2.058.288ZM12.138 39.21c-1.682.96-1.76 1.03-1.76 1.584 0 .338.072.5.309.685.17.134.421.243.558.243.261 0 2.32-1.108 2.976-1.601.315-.238.381-.366.381-.742 0-.351-.07-.51-.31-.698-.17-.133-.42-.243-.556-.242-.137 0-.856.347-1.598.77Zm33.519-.529c-.24.188-.31.347-.31.698 0 .376.066.504.382.742.68.512 2.719 1.601 2.997 1.601.67 0 1.129-1.115.64-1.556-.39-.354-2.893-1.728-3.146-1.728-.14 0-.393.11-.563.243ZM19.841 45.74c-.512.68-1.602 2.718-1.602 2.995 0 .149.13.4.288.558.37.37.921.38 1.275.024.365-.367 1.723-2.813 1.723-3.103 0-.13-.11-.377-.244-.547-.188-.239-.346-.309-.698-.309-.376 0-.504.066-.742.382Zm18.825-.073c-.134.17-.243.424-.243.564 0 .312 1.44 2.862 1.776 3.145.528.443 1.51.026 1.51-.64 0-.278-1.09-2.317-1.603-2.996-.237-.316-.366-.382-.742-.382-.352 0-.51.07-.698.31Zm-9.343 2.442c-.28.28-.288.335-.288 2.058 0 1.723.008 1.778.288 2.058a.946.946 0 0 0 .65.288c.23 0 .47-.106.651-.288.28-.28.288-.335.288-2.058 0-1.723-.007-1.777-.288-2.058a.946.946 0 0 0-.65-.288.946.946 0 0 0-.651.288Z" fill="#EA1C29"/></svg>