<svg width="60" height="46" fill="none" xmlns="http://www.w3.org/2000/svg"><path fill-rule="evenodd" clip-rule="evenodd" d="M7.789.13C7 .387 6.606.642 6.102 1.214c-.656.746-.833 1.407-.833 3.114v1.385H3.624c-1.795 0-2.24.106-2.853.68a3.02 3.02 0 0 0-.554.785C.011 7.623 0 8.148 0 17.141c0 8.994.011 9.518.217 9.962.12.258.369.611.554.785.612.574 1.058.68 2.853.68H5.27v1.385c0 1.776.184 2.431.9 3.195.899.963 1.307 1.095 3.512 1.144 1.475.033 2.033.002 2.53-.142a3.278 3.278 0 0 0 2.072-1.73l.362-.725V21.302h3.021l.048 1.26c.036.954.107 1.387.292 1.787.134.29.91 1.333 1.723 2.317l1.48 1.79v7.961c0 5.668.037 8.046.132 8.253.27.594 1.2.647 1.5.085.085-.157.125-2.907.125-8.535 0-7.668-.015-8.325-.202-8.593-.11-.159-.823-1.044-1.582-1.966-.76-.921-1.46-1.829-1.556-2.016-.117-.225-.176-.682-.176-1.36v-1.02l8.438.082 8.438.083.294-.293c.375-.375.384-.881.022-1.221-.26-.244-.373-.255-2.524-.255-2.533 0-2.904-.082-3.296-.726-.485-.794-.132-1.88.704-2.168.282-.097 1.62-.142 4.37-.147l3.965-.006.343.342.342.343v2.943c0 2.21-.04 3.037-.158 3.322-.087.21-.788 1.144-1.556 2.077-1.971 2.393-1.802 2.043-1.802 3.72 0 1.395.01 1.455.301 1.745.244.244.372.287.672.227.642-.128.723-.303.767-1.666l.04-1.238 1.469-1.776c.807-.977 1.578-2.014 1.712-2.304.185-.4.255-.833.292-1.787l.047-1.26h3.021v10.393l.363.725a3.278 3.278 0 0 0 2.072 1.73c.496.144 1.054.175 2.53.142 2.22-.049 2.645-.19 3.529-1.174.708-.787.883-1.414.883-3.165v-1.385h1.644c1.796 0 2.241-.106 2.853-.68.186-.174.435-.527.554-.785.206-.444.218-.971.22-9.936.003-10.351.03-9.922-.677-10.677-.606-.646-1.077-.77-2.924-.773l-1.67-.003V4.329c0-.894-.063-1.597-.177-1.981-.235-.79-1.032-1.673-1.842-2.039-.578-.261-.756-.28-2.728-.28-1.96 0-2.148.02-2.652.268a3.732 3.732 0 0 0-1.698 1.716l-.277.595-.001 5.186-.001 5.186H40.78v-1.689c0-1.677-.003-1.694-.382-2.426-.456-.882-1.114-1.427-2.05-1.7-.809-.235-1.68-.164-2.383.195l-.508.259-.176-.279c-.58-.916-1.83-1.626-2.864-1.626-.964 0-1.699.315-2.418 1.036l-.662.663-.495-.275c-1.168-.649-2.727-.416-3.803.568-.542.495-.662.559-.781.414-.228-.274-1.37-.648-1.98-.648-.927 0-1.638.316-2.379 1.056-.848.847-1.036 1.425-1.036 3.185v1.268H14.645v-1.407c0-1.25-.026-1.432-.234-1.64-.35-.35-.977-.313-1.281.074-.242.307-.243.364-.243 10.794 0 11.794.055 11.064-.868 11.511-.424.205-.723.24-2.07.24-1.788 0-2.2-.126-2.656-.808l-.266-.399V17.153c0-13.862.006-14.202.23-14.568.424-.697.704-.793 2.453-.839 1.796-.047 2.27.052 2.772.574l.346.362.059 2.216c.055 2.081.074 2.232.314 2.472.342.341.957.326 1.246-.031.195-.241.211-.48.177-2.615-.042-2.633-.108-2.881-.995-3.768-.787-.787-1.25-.915-3.438-.95C8.834-.016 8.118.02 7.79.129ZM52.189 2c.178.116.426.38.551.585.221.363.229.66.23 9.317v8.942l.287.287c.159.158.425.288.592.288.167 0 .433-.13.591-.288l.288-.287V7.472h1.523c1.368 0 1.548.024 1.758.234.23.23.235.391.235 9.455 0 8.415-.017 9.24-.194 9.435-.17.187-.392.214-1.758.214h-1.564v-1.412c0-1.342-.014-1.425-.288-1.699-.367-.367-.816-.367-1.183 0l-.287.288v3.68c0 3.63-.004 3.685-.266 4.078-.456.682-.869.808-2.657.808-1.346 0-1.646-.035-2.069-.24-.94-.455-.875.74-.84-15.33l.03-14.297.293-.318c.529-.572.844-.643 2.701-.61 1.412.025 1.76.066 2.028.241ZM5.27 17.14v9.67H3.725c-1.272 0-1.581-.035-1.758-.195-.204-.185-.214-.631-.214-9.434 0-9.085.004-9.245.234-9.476.21-.21.39-.234 1.758-.234H5.27v9.67Zm27.845-9.48c.218.103.503.36.633.57.22.355.236.58.236 3.204 0 2.762-.005 2.828-.264 3.113-.239.265-.365.295-1.363.329-1.09.037-1.103.034-1.348-.294-.236-.315-.248-.462-.248-3.185 0-2.702.013-2.872.243-3.185.498-.679 1.366-.906 2.11-.553Zm-4.998 1.08c.766.411.84.719.802 3.34l-.033 2.324-.434.398c-.239.218-.568.43-.733.472-.429.108-1.044-.034-1.414-.325-.559-.44-.642-.836-.642-3.05 0-1.694.034-2.092.205-2.433.427-.85 1.42-1.17 2.249-.726Zm10.081.266c.771.433.826.633.826 3.036 0 1.804-.031 2.184-.201 2.472-.201.34-.202.34-1.393.34-1.66 0-1.63.054-1.63-2.812 0-2.1.01-2.18.282-2.562.507-.712 1.356-.902 2.116-.474Zm-15.254.388c.174.09.448.305.61.478.284.304.293.366.325 2.267.03 1.79.014 1.986-.204 2.336-.709 1.142-2.252 1.092-2.846-.092-.3-.595-.3-3.619 0-4.214.403-.803 1.376-1.16 2.115-.775Zm-3.792 5.652c.042.17.382.613.754.986.52.519.824.72 1.305.863 1.162.345 2.259.15 3.202-.569l.419-.319.458.368c.874.703 2.124.886 3.214.472.339-.129.626-.234.638-.234.013 0-.06.242-.161.539-.182.534-.17 1.71.023 2.186.078.194-.308.205-7.138.205h-7.22v-4.805h4.428l.078.308Zm26.2 2.094v2.403H42.33l-.042-1.377c-.037-1.243-.072-1.43-.356-1.913-.255-.434-.637-.78-1.367-1.24-.023-.014-.006-.082.036-.15.05-.082.886-.126 2.414-.126h2.338v2.403Zm-8.066 16.504c-.254.27-.255.29-.255 5.574 0 3.515.042 5.382.125 5.536.3.562 1.23.51 1.5-.085.093-.202.133-1.88.133-5.506v-5.215l-.287-.288c-.37-.369-.878-.376-1.216-.016Z" fill="#fff"/></svg>