<svg width="76" height="100" fill="none" xmlns="http://www.w3.org/2000/svg"><path fill-rule="evenodd" clip-rule="evenodd" d="M36.388.225c-.333.097-1.628.792-2.879 1.545-2.56 1.541-2.655 1.56-5.498 1.056-1.022-.18-2.312-.273-3.08-.22-1.977.136-2.787.722-4.927 3.566l-1.758 2.336-1.27.342c-.697.188-1.994.528-2.88.754-1.803.462-2.91 1.151-3.654 2.277-.288.435-.791 1.9-1.225 3.565l-.735 2.828-2.337 1.758c-3.655 2.749-3.987 3.584-3.316 8.326l.357 2.518-.422.827a74.594 74.594 0 0 1-1.495 2.662c-1.798 3.076-1.723 4.351.466 7.969 1.524 2.52 1.525 2.525 1.08 5.234-.736 4.482-.249 5.661 3.43 8.306 1.074.773 2.054 1.592 2.177 1.822.123.23.51 1.553.861 2.941.914 3.623 1.907 4.829 4.596 5.581.683.192 1.227.423 1.209.516-.019.092-2.507 5.683-5.53 12.424-4.132 9.215-5.463 12.364-5.363 12.693.185.606.623 1.067 1.128 1.19.233.057 2.425-.138 4.871-.433 4.012-.484 4.472-.507 4.704-.232.142.167 1.369 1.898 2.727 3.846 1.358 1.948 2.61 3.595 2.782 3.661.56.216 1.206.127 1.611-.221.219-.188 2.911-5.961 5.983-12.83 3.072-6.868 5.619-12.52 5.66-12.561.04-.04.444.16.896.445 2.264 1.429 4.514 1.42 6.707-.028.414-.273.82-.424.902-.334.082.09 2.623 5.7 5.647 12.467 3.668 8.208 5.663 12.45 5.992 12.743.664.591 1.364.557 2.006-.097.29-.296 1.599-2.086 2.908-3.978 2.044-2.955 2.444-3.43 2.827-3.371.245.038 2.316.292 4.603.563 2.968.352 4.264.436 4.53.293.483-.258.98-.971.98-1.407 0-.188-2.461-5.832-5.469-12.543-3.007-6.712-5.468-12.28-5.468-12.376 0-.095.483-.28 1.073-.413.59-.132 1.487-.52 1.995-.86 1.417-.954 1.954-1.886 2.615-4.542.318-1.28.675-2.571.792-2.867.132-.334 1.012-1.125 2.313-2.081 3.688-2.71 4.155-3.845 3.42-8.317-.445-2.709-.443-2.714 1.081-5.234 2.19-3.618 2.264-4.893.466-7.97a74.536 74.536 0 0 1-1.495-2.66l-.422-.828.356-2.518c.672-4.742.34-5.577-3.315-8.326l-2.337-1.758-.733-2.832c-1.156-4.456-1.744-5.044-6.2-6.199L57.5 8.51l-1.758-2.336c-2.14-2.845-2.95-3.431-4.927-3.567-.768-.053-2.058.04-3.08.22-2.842.504-2.94.485-5.489-1.05C39.329.018 38.163-.29 36.388.224Zm4.143 4.201c3.355 2.03 3.689 2.095 7.82 1.509 1.874-.266 2.481-.288 2.878-.107.277.126 1.253 1.242 2.169 2.479.915 1.237 1.996 2.47 2.402 2.738.42.278 1.832.772 3.284 1.148 2.619.679 3.171.888 3.55 1.345.12.145.53 1.483.908 2.974.417 1.641.885 3.006 1.187 3.462.277.419 1.498 1.493 2.746 2.416 1.236.915 2.348 1.885 2.472 2.157.171.376.163.94-.034 2.383-.408 2.984-.466 4.425-.21 5.203.13.391.849 1.74 1.598 2.995 1.643 2.754 1.648 2.94.155 5.323-2.069 3.3-2.228 4.023-1.656 7.507.37 2.254.369 3.032-.009 3.571-.168.24-1.253 1.135-2.411 1.99-1.238.914-2.328 1.89-2.644 2.368-.353.533-.76 1.717-1.185 3.45-.485 1.98-.766 2.758-1.122 3.114-.35.35-1.145.644-3.034 1.12-3.45.87-3.954 1.197-5.88 3.805-.868 1.176-1.774 2.275-2.014 2.443-.545.382-1.548.385-3.668.012-3.328-.586-4.038-.43-7.288 1.602-2.487 1.556-2.853 1.543-5.682-.194-2.984-1.834-3.705-1.98-6.95-1.408-2.12.373-3.123.37-3.669-.012-.24-.168-1.145-1.267-2.014-2.444-1.925-2.607-2.429-2.933-5.879-3.803-3.311-.835-3.347-.871-4.099-4.02-.826-3.464-1.174-4.01-3.813-5.973-1.204-.897-2.325-1.822-2.49-2.058-.372-.53-.373-1.317-.003-3.563.57-3.473.434-4.108-1.585-7.372-1.57-2.538-1.568-2.69.084-5.457.75-1.257 1.468-2.605 1.598-2.996.256-.778.198-2.22-.21-5.203-.197-1.443-.205-2.007-.034-2.383.124-.272 1.236-1.242 2.472-2.157 1.248-.923 2.469-1.997 2.746-2.416.303-.458.768-1.818 1.187-3.472.484-1.91.817-2.846 1.12-3.144.293-.29 1.297-.647 3.156-1.124 1.628-.417 3.027-.898 3.473-1.194.411-.272 1.494-1.504 2.41-2.741.914-1.236 1.886-2.35 2.16-2.474.389-.178 1.012-.154 2.871.11 4.14.587 4.498.518 7.826-1.502 1.23-.747 2.354-1.294 2.658-1.294.302 0 1.429.547 2.653 1.287Zm-6.645 5.252c-9.227 1.32-17.445 7.222-21.478 15.423-1.22 2.479-1.861 4.322-2.497 7.172-.594 2.662-.646 8.298-.1 10.9.933 4.452 3.11 9.319 5.308 11.865.612.708.826.83 1.468.83.58 0 .845-.118 1.157-.515.222-.283.404-.705.404-.937 0-.232-.57-1.281-1.266-2.33-2.038-3.07-3.154-5.713-3.93-9.313-.498-2.307-.497-7.439 0-9.747.737-3.417 2.013-6.485 3.86-9.284 1.296-1.961 4.683-5.383 6.61-6.678 7.372-4.948 16.152-5.845 24.214-2.471.914.382 1.866.741 2.115.798 1.095.247 2.048-1.008 1.596-2.1-.186-.45-.573-.744-1.635-1.247-1.76-.832-4.62-1.748-6.761-2.165-2.302-.448-6.66-.545-9.065-.2Zm20.62 6.997a1.678 1.678 0 0 0-.424 1.097c0 .54.245.896 1.505 2.19.828.851 1.708 1.598 1.957 1.66 1.073.27 2.207-.864 1.937-1.937-.062-.249-.809-1.13-1.66-1.957-1.32-1.285-1.644-1.505-2.218-1.505-.45 0-.812.15-1.096.452ZM37.093 19.75c-1.076.24-1.7 1.195-3.808 5.834-1.691 3.72-2.019 4.31-2.441 4.396-.27.055-2.51.33-4.98.613-3.071.352-4.677.62-5.078.846-1.285.727-1.838 2.44-1.19 3.69.15.292 1.907 2.049 3.905 3.905 1.997 1.856 3.632 3.486 3.632 3.623 0 .136-.396 2.215-.879 4.618-.483 2.403-.879 4.735-.879 5.183 0 1.579 1.472 2.939 2.981 2.755.46-.056 2.386-1.012 5.134-2.546l4.398-2.455 4.386 2.456c2.742 1.535 4.66 2.489 5.12 2.545 1.507.184 2.979-1.177 2.979-2.755 0-.448-.396-2.78-.88-5.183-.482-2.404-.878-4.48-.878-4.614 0-.135 1.632-1.76 3.625-3.61 1.995-1.852 3.752-3.61 3.906-3.909.653-1.262.108-2.969-1.185-3.706-.403-.23-1.982-.493-5.077-.847-2.47-.283-4.711-.558-4.98-.612-.422-.085-.749-.67-2.425-4.338-1.93-4.226-2.564-5.352-3.197-5.675-.558-.285-1.468-.374-2.19-.213Zm2.938 8.112c1.124 2.447 2.218 4.562 2.455 4.749.323.254 1.626.475 5.329.905 2.696.313 4.901.62 4.901.684 0 .062-1.033 1.065-2.295 2.227-4.46 4.109-5.126 4.805-5.126 5.367 0 .288.395 2.54.877 5.004.482 2.464.878 4.583.879 4.708 0 .126-1.618-.682-3.597-1.795-4.596-2.584-5.08-2.827-5.622-2.827-.246 0-2.403 1.092-4.792 2.427-2.39 1.335-4.344 2.324-4.343 2.197 0-.126.396-2.251.878-4.722.482-2.47.877-4.726.877-5.013.001-.606-.062-.674-4.301-4.58-1.716-1.58-3.12-2.926-3.12-2.991 0-.066 2.176-.365 4.834-.665 3.683-.416 4.95-.63 5.32-.894.33-.236 1.149-1.782 2.526-4.771 1.12-2.433 2.095-4.423 2.165-4.423.07 0 1.04 1.986 2.155 4.413Zm20.704-3.157c-.584.622-.484 1.412.467 3.68.394.941.948 2.567 1.23 3.612.466 1.732.512 2.237.524 5.708.01 3.068-.058 4.113-.352 5.37-1.21 5.175-3.58 9.415-7.238 12.954-4.83 4.672-10.763 7.082-17.492 7.104-5.258.018-10.115-1.466-14.41-4.402-1.84-1.257-2.513-1.386-3.273-.626-1.003 1.002-.436 2.01 2.014 3.579 7.546 4.832 16.43 5.955 24.75 3.13 8.457-2.872 15.03-9.53 17.871-18.103 1.143-3.45 1.434-5.619 1.308-9.752-.11-3.574-.402-5.361-1.316-8.042-.642-1.88-1.703-4.119-2.093-4.415-.558-.424-1.49-.328-1.99.203Zm1.94 54.163c2.61 5.83 4.707 10.636 4.663 10.68-.045.045-1.675-.107-3.624-.337-2.648-.312-3.658-.365-4.003-.208-.253.116-1.382 1.537-2.507 3.158-1.126 1.621-2.09 2.949-2.144 2.95-.192.004-10.098-22.352-9.932-22.416.092-.036 1.103.081 2.245.26 1.142.18 2.452.326 2.91.326h.834l2.584 5.794c2.614 5.86 3.217 6.867 4.11 6.867.547 0 1.546-1.034 1.542-1.596-.002-.25-1.189-3.086-2.637-6.304-1.448-3.217-2.633-5.918-2.633-6.003 0-.084.38-.66.846-1.278a243.99 243.99 0 0 0 1.688-2.278c.833-1.14.845-1.147 1.079-.683.13.258 2.37 5.238 4.98 11.068ZM19.72 69.294c.674.94 1.424 1.928 1.666 2.197l.442.488-2.647 5.859c-1.534 3.397-2.652 6.121-2.66 6.484-.023 1.166 1.144 1.881 2.189 1.34.473-.244.963-1.194 3.268-6.334l2.71-6.047h.822c.45 0 1.795-.15 2.987-.334 1.192-.183 2.206-.295 2.253-.247.075.075-9.761 22.186-9.956 22.38-.04.041-.762-.913-1.603-2.12-.841-1.208-1.861-2.621-2.267-3.142-.879-1.129-.77-1.117-5.306-.559-1.712.211-3.143.354-3.18.318-.109-.11 9.75-21.992 9.91-21.992.08 0 .698.77 1.372 1.709Z" fill="#EA1C29"/></svg>