<svg width="60" height="59" fill="none" xmlns="http://www.w3.org/2000/svg"><path fill-rule="evenodd" clip-rule="evenodd" d="M51.505.251c-.266.23-.318.4-.414 1.337-.124 1.202-.482 2.305-1.057 3.253-.223.368-1.391 1.641-2.769 3.018l-2.383 2.38-.002-1.346c-.002-2.307-.505-3.681-1.827-4.995-1.651-1.641-4.073-2.183-6.348-1.419l-.78.262-.604-.607c-.716-.72-1.566-1.033-2.582-.949-.791.066-1.843.597-2.297 1.16-.415.514-1.26 2.752-1.345 3.56-.174 1.65 1.016 3.16 2.748 3.49l.705.133.18.92c.216 1.092.706 2.185 1.444 3.22l.539.754-.32 1.133a33.157 33.157 0 0 1-2.886 7.082c-.682 1.242-.81 1.557-.746 1.846.138.628.887.904 1.427.526.704-.493 2.905-5.21 3.733-8 .167-.564.324-1.086.347-1.16.044-.139 1.74.679 1.882.907.04.064-.275.485-.7.934-.854.906-.956 1.25-.528 1.794.183.233.348.309.674.31.413 0 .694-.265 7.056-6.651 5.895-5.919 6.679-6.748 7.113-7.53.742-1.339 1.102-2.545 1.174-3.935L53 .498l-.325-.255c-.415-.327-.786-.324-1.17.008Zm4.158-.154c-.676.206-1.388.709-1.623 1.147-.209.391-.16.72.154 1.034.385.386.826.363 1.47-.076.444-.303.608-.351 1.039-.304.951.104 1.537.876 1.37 1.805-.072.397-1.048 1.413-8.98 9.352-8.55 8.56-8.898 8.925-8.898 9.338 0 .325.075.49.308.673.508.399.882.316 1.62-.359.362-.33.696-.563.742-.517.046.046.082.461.08.923-.005 1.002-.331 1.725-1.443 3.198-1.373 1.819-2.374 2.62-6.287 5.026l-1.875 1.152-1.641-.196c-2.067-.248-2.007-.25-2.35.093-.371.37-.38.92-.022 1.278.228.228.514.295 2.022.476.965.115 2.415.365 3.22.556.806.19 2.51.553 3.788.806 2.876.57 6.352 1.674 7.027 2.23.522.43 1 1.313 1.091 2.014.054.412-.615 4.088-1.184 6.503-.06.257-.101.264-1.596.264H42.16l.069-.498c.235-1.706.44-4.004.378-4.25a.929.929 0 0 0-.347-.468c-.403-.264-3.85-.519-8.57-.634-3.824-.093-4.026-.109-5.016-.406-.568-.17-1.295-.443-1.616-.605-1.569-.796-2.46-2.526-2.44-4.737.013-1.536.099-1.699 1.479-2.804.657-.527 1.303-1.095 1.435-1.263.326-.414.307-.92-.047-1.275-.498-.498-.828-.393-2.046.647-.601.514-1.364 1.088-1.695 1.277-1.79 1.023-4.18 2.928-12.437 9.912-2.026 1.714-3.166 2.554-6.446 4.755C.765 48.912.521 49.117.166 50.113c-.297.831-.21 1.46.434 3.176.33.882.8 2.064 1.041 2.628l.44 1.026h-.754c-.644 0-.796.042-1.042.287-.38.381-.38.92 0 1.3l.288.288h58.852l.287-.288a.944.944 0 0 0 .288-.65.944.944 0 0 0-.288-.65l-.287-.287H50.642l-.288-.63c-.611-1.334-1.496-1.963-3.42-2.429-.581-.14-1.092-.287-1.137-.327-.045-.04.495-2.867 1.2-6.283.705-3.416 1.314-6.448 1.353-6.739.237-1.767-.966-3.95-2.647-4.801-1.226-.621-4.527-1.596-7.15-2.11-1.385-.273-2.531-.507-2.547-.521-.015-.014.592-.412 1.348-.885 2.25-1.406 3.578-2.398 4.412-3.299 2.804-3.029 3.644-5.341 2.739-7.547l-.288-.7 7.593-7.618c8.146-8.173 8.017-8.025 8.155-9.363.108-1.046-.21-1.881-1.017-2.67-.51-.498-.836-.711-1.3-.85-.652-.193-1.49-.224-1.985-.074Zm-21.919 3.13c.396.233.708.736.708 1.14 0 .409-.762 2.51-1.01 2.784-.258.285-.995.506-1.373.41-.479-.12-1-.635-1.082-1.07-.073-.391.337-1.888.733-2.67.351-.696 1.354-.99 2.024-.595Zm5.999.904a4.29 4.29 0 0 1 2.069 1.16l.386.403-.705.653c-.807.747-1.607 1.098-2.87 1.256-.948.12-1.241.358-1.241 1.011 0 .6.335.866 1.084.864 1.318-.003 2.873-.56 3.956-1.416l.585-.463v4.521l-1.517 1.514-1.517 1.513-.72-.2c-.75-.208-1.749-.67-2.18-1.006l-.25-.196.397-.983c.218-.541.396-1.141.396-1.334 0-.782-.97-1.19-1.494-.63-.136.145-.346.52-.468.832l-.223.568-.206-.316c-.325-.496-.66-1.572-.736-2.366-.068-.714-.063-.732.386-1.244.42-.477 1.137-2.155 1.403-3.28.052-.222.222-.4.53-.557.904-.461 1.85-.56 2.935-.304Zm-10.7 22.371c-.295.239-.568.708-.568.977 0 .138.11.39.243.56.362.46 1.037.435 1.446-.052.39-.462.395-.964.016-1.344-.315-.314-.842-.38-1.138-.14ZM23.084 37.43c.342 1.097.85 1.97 1.615 2.775l.631.666-.332.172c-.183.094-1.967.895-3.965 1.779-1.998.883-4.96 2.254-6.581 3.045l-2.948 1.438-.475-1.246a49 49 0 0 1-.51-1.372c-.032-.12 7.31-6.378 10.63-9.062l1.524-1.231.078 1.108c.043.61.193 1.477.333 1.928Zm5.577 4.76c.81.216 1.422.26 4.853.343 3.544.086 7.006.282 7.126.403.026.025-.067 1.065-.206 2.31-.628 5.628-.958 8.139-1.187 9.033-.24.935-.255 1.727-.046 2.4l.082.264H23.567c-8.645 0-15.717-.028-15.717-.061 0-.091-.694-4.058-.762-4.352-.05-.217.189-.41 1.699-1.38 3.504-2.251 5.379-3.198 13.594-6.867a328.654 328.654 0 0 0 4.102-1.857c.548-.259 1.054-.474 1.124-.477.07-.004.545.105 1.055.24ZM9.378 46.98c.259.663.44 1.238.404 1.278-.037.039-1.053.705-2.258 1.48-1.381.886-2.245 1.516-2.334 1.703-.132.274.085 1.836.718 5.18.051.273.021.322-.2.321-.814-.002-1.775-.59-2.15-1.317-.383-.738-1.685-4.257-1.685-4.55 0-.614.5-1.043 3.75-3.206 1.773-1.18 3.237-2.135 3.254-2.12.017.014.243.568.501 1.231Zm34.908 4.132c-.312 1.5-.57 2.914-.572 3.144-.006.653.31.845 2.106 1.281.87.211 1.687.436 1.816.5.294.143.88.683.88.81 0 .053-1.49.094-3.311.092-3.581-.005-3.663-.018-4.08-.649-.285-.433-.284-.67.01-1.82.177-.693.809-5.331.816-5.994.001-.049.654-.088 1.452-.088h1.451l-.568 2.724Z" fill="#fff"/></svg>