<svg width="60" height="60" fill="none" xmlns="http://www.w3.org/2000/svg"><mask id="a" style="mask-type:alpha" maskUnits="userSpaceOnUse" x="0" y="0" width="60" height="60"><path fill="#fff" d="M0 0h60v60H0z"/></mask><g mask="url(#a)"><path fill-rule="evenodd" clip-rule="evenodd" d="M28.078.195c-.47.128-1.18.405-1.578.617-.697.371-1.921 1.454-2.384 2.109-.175.249-1.146.711-4.504 2.147-2.353 1.007-4.504 1.961-4.778 2.121-.75.438-1.2 1.291-1.198 2.274.002.877.254 1.53.783 2.026.19.18 2.241 1.345 4.557 2.591l4.21 2.266.141.847c.086.514.283 1.096.5 1.481.295.523.358.764.356 1.37-.002.461-.084.913-.221 1.215-.12.265-.865 1.214-1.656 2.11-1.893 2.146-2.372 2.807-3.052 4.21-1.029 2.122-.873.989-2.649 19.23l-.8 8.208-1.402 1.876c-1.143 1.529-1.402 1.95-1.403 2.272 0 .273.083.464.27.616.25.202.516.219 3.35.219 2.936 0 3.092-.011 3.387-.243l.309-.243v-3.892l2.404-7.516c1.322-4.134 2.403-7.66 2.403-7.837 0-.672-.858-1.033-1.388-.583-.173.147-.893 2.245-2.565 7.475l-2.324 7.27-.626.035-.625.036.073-.563c.04-.31.493-4.885 1.007-10.167.514-5.282.963-9.632.998-9.668.06-.06 5.098 1.128 5.205 1.227.027.024-.013.248-.088.498-.201.672-.168 1.123.1 1.366.299.27.866.275 1.159.01.127-.114.464-.948.772-1.911.45-1.405.574-1.68.697-1.546.585.64 6.533 7.287 6.825 7.627.306.355.76 1.6 2.668 7.328l2.3 6.9v3.911l.31.243c.294.232.45.243 3.386.243 2.834 0 3.1-.017 3.35-.22.187-.15.27-.343.27-.617 0-.326-.253-.735-1.419-2.283l-1.42-1.886-1.712-7.727c-.943-4.25-1.882-8.222-2.087-8.825-.258-.76-1.291-2.794-3.365-6.625l-2.992-5.528-.063-1.609c-.056-1.455-.087-1.634-.32-1.866-.315-.316-.883-.337-1.206-.044-.2.181-.236.36-.236 1.173 0 .527-.027.986-.06 1.019-.052.052-6.623-1.857-6.717-1.952-.02-.02.1-.234.264-.476.308-.454.65-1.435.65-1.865 0-.24.035-.242 3.899-.242h3.899l.623-.346c.764-.423 1.252-.963 1.645-1.818.262-.572.304-.848.35-2.292l.053-1.642 2.33-1.988c1.9-1.62 2.384-2.097 2.622-2.573.387-.777.383-1.482-.014-2.278-.358-.72-.538-.851-3.28-2.407-1.71-.97-2.04-1.204-2.262-1.598C35.02 2.083 33.44.783 31.949.308c-1.143-.363-2.77-.41-3.87-.113Zm2.967 1.689c.877.234 1.552.62 2.26 1.288 1.276 1.208 1.59 2.088 1.837 5.153.1 1.244.182 2.405.182 2.58v.317h-2.696v-.486c0-.416.078-.57.535-1.06.753-.804 1.136-1.697 1.2-2.797.042-.737.01-.97-.193-1.368-.521-1.02-1.678-1.653-2.794-1.527-.596.067-5.523 2.43-5.873 2.816-.438.484.002 1.807.95 2.856.463.512.546.677.546 1.085v.481h-2.697v-.324c0-1.025.389-4.881.55-5.46.718-2.58 3.616-4.242 6.193-3.554Zm-8.13 4.22-.04.51-2.013.798c-2.804 1.112-2.964 1.193-3.125 1.581-.11.266-.106.404.019.667.135.285.48.462 2.473 1.269 2 .81 2.363.997 2.672 1.374.332.405.354.492.322 1.244l-.034.81-3.72-2.008c-2.045-1.103-3.804-2.093-3.91-2.198-.293-.293-.247-1.015.084-1.337.213-.207 6.987-3.213 7.253-3.219.033 0 .042.228.02.51Zm9.416-.14c.299.235.319.303.273.939-.062.854-.496 1.52-1.32 2.03-.506.313-.678.354-1.462.354-.757 0-.968-.047-1.436-.322-.55-.324-1.035-.826-1.035-1.073 0-.182 3.972-2.166 4.352-2.174.169-.004.451.107.628.246Zm5.784 1.169c2.384 1.365 2.383 1.403-.126 3.558-.437.375-.811.661-.832.636-.022-.026-.102-.996-.18-2.157-.077-1.16-.168-2.256-.202-2.433-.034-.177-.029-.322.012-.322.04 0 .639.323 1.328.718ZM22.661 9.222c0 .318-.047.608-.104.644-.1.062-1.26-.355-1.457-.524-.081-.07 1.209-.677 1.473-.694.048-.003.088.255.088.574Zm8.137 2.599c-.011.643-.052.766-.33 1.005-.704.606-1.55.169-1.67-.864-.106-.909-.094-.919 1.03-.895l.982.02-.012.734Zm-3.501 1.407c.128.406.9 1.181 1.403 1.41.272.124.74.214 1.114.214.374 0 .841-.09 1.113-.214.505-.23 1.275-1.005 1.405-1.414.075-.237.143-.25 1.155-.218l1.075.034v2.178c0 2.162-.002 2.181-.312 2.649-.55.831-.694.86-4.436.86-3.743 0-3.887-.029-4.437-.86-.303-.458-.313-.532-.353-2.505-.023-1.119-.011-2.112.025-2.208.052-.135.298-.173 1.118-.173.966 0 1.057.02 1.13.247Zm.68 12.53c2.183.646 3.985 1.176 4.005 1.176.057 0 1.936 3.507 1.933 3.607-.003.074-3.615 2.747-4.034 2.984-.096.055-.55-.367-1.292-1.202-1.071-1.203-1.172-1.285-1.583-1.285-.575 0-.726.19-1.12 1.407-.177.548-.36 1.038-.405 1.088-.045.05-1.33-.214-2.856-.586l-2.774-.678-.002-.373c-.006-.97.618-3.024 1.248-4.11.742-1.28 2.466-3.331 2.736-3.255.097.027 1.962.579 4.144 1.226Zm8.368 9.216c.794 1.479 1.609 3.085 1.811 3.568.258.617.855 3.07 1.997 8.208.896 4.03 1.657 7.421 1.692 7.534.053.175-.02.205-.504.205h-.566l-2.21-6.654c-1.215-3.66-2.33-6.84-2.475-7.065-.145-.226-1.354-1.62-2.685-3.1-1.442-1.601-2.379-2.732-2.316-2.795.317-.317 3.608-2.648 3.701-2.621.061.017.76 1.24 1.555 2.72Zm-17.788 22.27v.997h-2.96l.288-.38c.157-.21.492-.659.742-.998l.456-.615h1.474v.997ZM43 56.864c.25.338.585.787.742.996l.287.381H41.07V56.248h1.474l.456.615Z" fill="#EA1C29"/></g></svg>